<?xml version="1.0" encoding="utf-8"?>
<!-- Generator: Adobe Illustrator 25.3.0, SVG Export Plug-In . SVG Version: 6.00 Build 0)  -->
<svg version="1.1" xmlns="http://www.w3.org/2000/svg" xmlns:xlink="http://www.w3.org/1999/xlink" x="0px" y="0px"
	 viewBox="0 0 1080 548.9" xml:space="preserve">
<style type="text/css">
	.a4plogowst0{fill:#FFFFFF;}
	.a4plogowst1{fill:#444444;}
</style>
<g>
	<circle class="a4plogowst0" cx="571.1" cy="274.5" r="274.5"/>
	<path class="a4plogowst1" d="M691.4,184.5c-31.5,77.1-41.6,183.3-41.6,268.8c-0.6,49.5-78.2,49.5-78.2,0c0-33.7,3.9-67.5,8.4-100.7
		c-12.9,0.6-25.9,1.7-38.2,2.8c-19.1,1.7-38.2,4.5-57.4,3.9c-16.9-0.6-39.4-3.4-50.6-18c-14.1-17.4-19.1-38.2-10.7-59.6
		c28.1-75.9,92.8-132.7,120.9-211.5c7.3-19.7,25.9-32.6,47.8-27c19.1,5.6,34.3,27.6,27.6,47.2c-25.3,70.3-74.2,125.4-109.7,190.1
		c27.6-1.7,55.1-5.1,83.2-6.2c6.2-40.5,12.4-74.8,29.8-111.9C646.9,111.9,706.5,147.4,691.4,184.5z"/>
	<path class="a4plogowst1" d="M1080,241.9c-1.1,51.7-36,100.1-86.6,114.2c-25.3,6.2-51.2,4.5-74.2-6.7c-1.1,50.1-5.1,99.5-10.1,149
		c-2.3,21.4-16.3,38.8-38.8,38.8c-19.7,0-41.6-17.4-39.4-38.8c6.2-59.1,11.3-119.8,10.1-180c-0.6-59.6-5.6-111.4-20.8-168.2
		c-5.6-19.7,6.8-42.2,27.6-47.8c20.3-5.6,42.2,6.7,47.8,27.6c3.4,13.5,6.8,26.4,9.6,39.9C969.7,92.8,1081.7,142.3,1080,241.9z
		 M999,262.7c6.7-12.9,8.4-30.4-2.2-43.3c-10.7-12.9-31.5-13.5-45.6-2.2C898.3,258.7,973.1,312.7,999,262.7z"/>
	<g>
		<path class="a4plogowst1" d="M331,309.9c11.6,54.1,20.8,109.7,13.3,164.4c-2.4,17.8-7.3,36.5-20.7,48.4c-9.1,8-21.2,12-33.3,13.1
			c-63.8,5.8-70.1-53.9-77.3-100.9c-2.9-18.9-13.2-39.5-32-43c-15-2.8-30.1,7.2-38,20.3c-7.8,13.1-9.9,28.8-11.4,44
			c-1.5,15.2-2.7,30.8-9.2,44.7c-8.5,18.3-26.4,32-46.3,35.3c-19.9,3.3-41.3-4.1-54.8-19.1C6,500.5,1.7,476.7,0.6,454.1
			c-2.3-45.3,5.9-90.5,15.1-134.9c12-57.9,26.2-115.9,52.2-169.1c12.8-26.2,28.9-51.6,52.1-69.2c23.2-17.6,54.6-26.5,82.2-17.2
			c24.7,8.3,42.8,29.3,57.1,51.1c32.1,49,50.6,105.3,64.4,162.5C326.2,288.1,328.6,299,331,309.9z M196.3,232.9
			c-3.3-10.6-10.5-29.9-25-26.8c-8.9,1.9-13.8,13.7-17.1,21c-6.8,15.1-14.2,44.1-12.5,60.6c2.3,22.7,28,33.2,47.5,23.8
			c9.2-4.5,11.9-14,12.7-23.7C203.5,269.3,201.9,250.6,196.3,232.9z"/>
	</g>
</g>
</svg>
