<?xml version="1.0" encoding="utf-8"?>
<!-- Generator: Adobe Illustrator 25.3.0, SVG Export Plug-In . SVG Version: 6.00 Build 0)  -->
<svg version="1.1" xmlns="http://www.w3.org/2000/svg" xmlns:xlink="http://www.w3.org/1999/xlink" x="0px" y="0px"
	 viewBox="0 0 1076.2 565.1" xml:space="preserve">
<style type="text/css">
	.angelitoslogo2shortst0{fill:#B25817;}
	.angelitoslogo2shortst1{fill:#FFFFFF;}
	.angelitoslogo2shortst2{fill:#E9C39E;}
	.angelitoslogo2shortst3{fill:#FFDE56;}
</style>
<g>
	<g>
		<path class="angelitoslogo2shortst0" d="M72.3,84.9c15.3,0,25.6,7.2,30.6,21.6c4.4,12.1,6.6,31.1,6.6,56.8c-0.6,49.4-0.9,76-0.9,79.9
			c-1.8,3.2-3.9,4.7-6.2,4.7H100c-3.2,0-4.9-1.9-5.3-5.7c0-9.7,0.2-27.8,0.5-54.6l-0.9,0.5H40.7c-2.1,39.2-3.8,58.9-5.2,58.9
			c-4.7,5.7-9.9,8.5-15.8,8.5h-2.8C7.3,254,2.5,250,2.5,243.6c0.3-29.9,3.2-61.3,8.5-94.2C20.5,106.4,40.9,84.9,72.3,84.9z
			 M42.1,176.2h53.5v-0.5c0-53.6-6.2-80.3-18.6-80.3c-10.2,0-20.2,17.2-30,51.6C44.7,158.3,43.1,168,42.1,176.2z"/>
		<path class="angelitoslogo2shortst0" d="M164.5,85c7.1,0.4,10.7,1.9,10.7,4.5c38.6,83.6,57.9,125.5,57.9,125.8h0.2V215c1.5-80.6,2.3-121.7,2.3-123.2
			c0-3.7,2.7-5.9,8.2-6.6h0.1c1.9,0,3.8,0.9,5.6,2.6l0.8,2.3c0,3.4-0.1,6.8-0.2,10.2c0.2,31.4,0.2,57.9,0.2,79.5v1.7
			c0,29.7-1.2,52.4-3.6,68c0,2-3.6,4-10.9,5.9c-1.5,0.1-2.8,0.1-3.9,0.1h-0.9c-7,0-11.5-1.5-13.6-4.6c0-0.3-6.6-13.8-19.8-40.5
			c-20-40.6-31.1-63.2-33.3-68h-0.2v0.4l-0.8,106.1c0,3.8-2.5,6.1-7.5,6.9h-0.8c-3.7,0-5.8-1.9-6.3-5.7v-0.2
			c0-12.8-0.1-32.9-0.2-60.4c0-52.1,0.9-85,2.8-99c0.6-2.7,1.8-4,3.4-4C154.5,85.9,157.8,85.5,164.5,85z"/>
		<path class="angelitoslogo2shortst0" d="M347.5,85.7h6.6c15.3,0,25.9,7.1,32,21.4c0.9,4.8,1.4,9.1,1.4,12.9c0,4-2.7,6.4-8.1,7.1
			c-4.5,0-6.8-2.7-6.8-8.1c0-9.4-3.8-15.9-11.4-19.6c-3.2-1.3-6.9-1.9-11-1.9c-16.9,0-27.6,25-32.4,74.9c0,3.4-0.2,7.9-0.5,13.4
			c0,28.5,5.9,46.4,17.7,53.9c2.8,1.3,5.1,1.9,6.6,1.9h3.8c9.3,0,16.8-7.8,22.4-23.4c3.2-12.1,4.7-21,4.7-26.7h-19.6
			c-2.8,0-5.1-1.3-6.6-3.8v-2.4c0-3.1,2.5-5,7.6-5.7h38.7c4.4,0.5,6.6,2.2,6.6,5.2v0.5c0,3.2-2.7,5.2-8.1,6.2h-4.3v0.5
			c0,16.1-4.6,31.6-13.9,46.3c-8.8,10.5-19.6,15.8-32.4,15.8c-30.7,0-50.4-15.6-59.2-46.8c-2.2-9.2-3.3-18.2-3.3-27.2
			c0-29.1,9.7-54.7,29.1-76.9C320.3,91.6,333.7,85.7,347.5,85.7z"/>
		<path class="angelitoslogo2shortst0" d="M436.7,85.9h58.1c5.6,0,8.4,1.6,8.4,4.9v0.8c0,3.9-3.7,5.8-11.2,5.8h-40.8c-0.9,50.2-1.4,78-1.7,83.3h31
			c4.7,0,7.1,1.5,7.1,4.4v0.5c-0.7,4.2-2.7,6.3-5.8,6.3h-32.3c-0.6,19.4-0.9,35.8-0.9,49.1l-0.5,2.3h44.4c3.6,0.8,5.3,2.4,5.3,4.9
			v0.5c0,3.2-3.1,5.1-9.4,5.7h-54c-8.6,0-12.9-4.4-12.9-13.3l-3.6-140c0-6.6,4.3-11.3,12.9-14.2C432.3,86.2,434.2,85.9,436.7,85.9z"
			/>
		<path class="angelitoslogo2shortst0" d="M540.5,86.2c8.3,1.1,12.5,4.2,12.5,9.1c0,8.2-0.9,57.7-2.8,148.3h62.3c3.3,0.8,5,2.3,5,4.6v1.7
			c-0.8,3.3-2.5,5-5,5h-78.1c-5.7,0-9.3-2.6-10.8-8c-0.3-0.9-0.5-1.5-0.5-1.7l-3.3-145.4c0-6.2,5.1-10.8,15.4-13.8H540.5z"/>
		<path class="angelitoslogo2shortst0" d="M637.6,84.9h35.6c4.5,0.5,6.8,2.3,6.8,5.3c0,2.9-2.5,4.9-7.6,5.8l-2.7,147c-0.2,0.6-0.4,1.1-0.4,1.4h3.9
			c3.4,0,5.5,1.6,6.3,4.9c0,3.3-2.5,5.4-7.6,6.2h-34.8c-5.1,0-7.6-1.8-7.6-5.3c0-2.6,2.3-4.5,6.8-5.7h4.9c0-8.6-0.8-58.1-2.3-148.5
			h-2.6c-4.2-0.5-6.3-2.1-6.3-4.9C630,87.8,632.5,85.7,637.6,84.9z"/>
		<path class="angelitoslogo2shortst0" d="M702.5,85.2h133.6c5.9,0,8.8,1.9,8.8,5.7c0,3.3-2.8,5.4-8.3,6.2H786c0,12.2-0.5,60.3-1.5,144.4
			c0,5.8-4.1,10.1-12.3,12.9c-0.4,0.3-1.6,0.5-3.6,0.5h-4.2c-7.2-1.8-10.8-5.4-10.8-10.8c-0.4-1.4-0.6-2.7-0.6-3.7l-1.5-143.3H700
			c-3,0-5.3-1.2-6.8-3.6v-2.1C693.3,87.7,696.3,85.6,702.5,85.2z"/>
		<path class="angelitoslogo2shortst0" d="M897.2,85.5c10,0,19.9,3.2,29.7,9.6c7.8,6.4,13,12.3,15.4,17.8c2.5,3.6,4.9,9.4,7.4,17.3
			c2.5,9.7,3.8,18.6,3.8,26.7v5.5c0,19.1-4.7,38.1-14.1,56.7c-2.8,5.5-7.5,11.9-14,19.1c-11.5,10.9-23.7,16.4-36.5,16.4h-3.2
			c-24.6,0-42.8-12.1-54.5-36.3c-5.1-12.3-7.6-25.3-7.6-39.2v-0.8c0-23.3,6.4-44.5,19.3-63.6C857.5,95.2,875.6,85.5,897.2,85.5z
			 M859.6,181.9c0,24.8,4.6,42.6,13.9,53.6c4.7,4.9,9.8,7.4,15.3,7.4c14.3,0,26.7-9,37.1-27.1c8.9-17,13.4-35.4,13.4-55.2
			c0-22.9-6.2-40.7-18.6-53.4c-8.1-6.6-15.7-9.8-22.9-9.8c-7,0-12.1,1.9-15.5,5.8c-5.9,5.5-11,14.7-15.1,27.5
			C862.2,147.2,859.6,164.2,859.6,181.9z"/>
		<path class="angelitoslogo2shortst0" d="M1035,84.9c18.5,0,30.9,6.3,37.1,18.9c1.3,3.1,2.1,6.8,2.5,11.3c-1.4,12.9-3.6,19.3-6.5,19.3
			c0,0.6-1.2,0.9-3.6,0.9h-0.6c-4.4-0.6-6.6-2.4-6.6-5.6c2.1-4.9,3.1-9.7,3.1-14.2c0-7.8-3.9-13.2-11.6-16.3
			c-4.1-1.7-9.1-2.6-14.8-2.6c-13.5,0-22.5,6.8-26.9,20.4l-0.6,6.1c0,10.3,6.8,19.6,20.4,28c9.1,4.6,16.2,8.7,21.4,12.2
			c18.7,15.1,28,31.2,28,48.4c0,22.2-15.1,35.9-45.3,41.2c-4.4,0.7-8.8,1.1-13.2,1.1h-5.1c-17.2,0-28.8-8-34.7-24
			c-0.6-2.4-0.9-4.4-0.9-6.1v-4.2c1.6-15.3,5.3-22.9,11.2-22.9l1.1-0.5c4.3,0.8,6.5,2.7,6.5,5.6c-3.4,7.9-5.1,13.8-5.1,17.8
			c0,9.9,4.6,16.9,13.8,20.9c5.1,1.3,9.2,2,12.2,2c9.3,0,17.8-4.7,25.5-14.2c2.1-3.2,3.1-6.6,3.1-10.2v-2
			c0-13.4-11.9-26.4-35.7-39.2c-24-10.5-36.1-25.6-36.1-45.3v-0.5c0-21.4,13.9-36.1,41.7-44.3C1025.3,85.6,1031.9,84.9,1035,84.9z"
			/>
		<path class="angelitoslogo2shortst0" d="M18.2,327.5h2.7c5.7,0,9.9,2.6,12.6,7.8c0.6,0.9,0.9,1.8,0.9,2.6v3.9c9.6-7,19.5-10.4,29.7-10.4
			c14.7,0,26.2,7.6,34.5,22.8c4.3,9.1,6.5,20.3,6.5,33.6c0,29.2-9.2,56-27.5,80.3c-13.7,15.1-29.3,22.7-46.8,22.7l-2.6-0.4
			c-2.8,3.8-6.8,5.7-11.7,5.7c-5.7,0-9.8-2.8-12.2-8.3c0-0.3-0.2-0.8-0.5-1.3L1.7,341c0-5.1,3.9-9.3,11.7-12.7
			C14.5,327.7,16.1,327.5,18.2,327.5z M33.9,359.4c0,10.9-0.7,50.9-2.1,120.1h2.1c21.4,0,38.5-17,51.1-51.1
			c4.3-13.9,6.5-27.2,6.5-39.8v-0.4c0-25.9-8-40.9-24.1-45.1c-1.1-0.2-2.3-0.4-3.4-0.4h-1.8C51.1,342.8,41.6,348.3,33.9,359.4z"/>
		<path class="angelitoslogo2shortst0" d="M149.9,327.9H208c5.6,0,8.4,1.6,8.4,4.9v0.8c0,3.9-3.7,5.8-11.2,5.8h-40.8c-0.9,50.2-1.4,78-1.7,83.3h31
			c4.7,0,7.1,1.5,7.1,4.4v0.5c-0.7,4.2-2.7,6.3-5.8,6.3h-32.3c-0.6,19.4-0.9,35.8-0.9,49.1l-0.5,2.3h44.4c3.6,0.8,5.3,2.4,5.3,4.9
			v0.5c0,3.2-3.1,5.1-9.4,5.7h-54c-8.6,0-12.9-4.4-12.9-13.3l-3.6-140c0-6.6,4.3-11.3,12.9-14.2
			C145.5,328.2,147.3,327.9,149.9,327.9z"/>
		<path class="angelitoslogo2shortst0" d="M366.9,325.8h1.8c5.9,0,10.7,2.7,14.4,8c0.6,0.9,1,2.2,1.3,4c0.4,43.1,0.6,73.2,0.6,90.2h9.3
			c3.2,0,5.4,1.5,6.5,4.6v1.5c0,1-0.8,2.2-2.4,3.6c-1.6,0.8-3.4,1.2-5.3,1.2h-7.8c0.2,23.7,0.2,39.2,0.2,46.3
			c0,3.7-2.6,7.2-7.8,10.3c-3,1.5-6.1,2.3-9.1,2.3c-7,0-12.3-3.1-15.9-9.3c-1.7-0.9-2.6-2.5-2.6-5c0-4.1-0.1-18.8-0.2-44h-0.1
			c-26.4,0.3-40.9,0.5-43.3,0.5c-2.1,0.2-3.3,0.2-3.7,0.2c-4.7-0.7-7-2.5-7-5.5v-0.4c0-1,3.4-7.5,10.3-19.3
			c29.1-51.9,44-78.2,44.6-79c0.4,0,1.4-1.5,3-4.4C357.5,327.7,361.9,325.8,366.9,325.8z M349,364.8c-0.1,0.4-12.1,21.7-36,64v0.2
			c19.9-0.3,32.1-0.5,36.5-0.5v-0.2c0-15-0.2-36-0.5-63.2v-0.2H349z"/>
		<path class="angelitoslogo2shortst0" d="M496.6,326.5h1.7c5.9,0,10.3,2.7,13.3,8.1c0.5,1.5,0.7,2.7,0.7,3.6c9.7-5.6,19.8-8.4,30.3-8.4
			c11.2,0,20.6,3.5,28.1,10.6c7.4,7.8,11.2,17,11.2,27.6v4c0,20.9-9.8,37.7-29.4,50.6c-5.3,3.3-11.2,6.1-17.6,8.2
			c-9.6,2.8-17.1,4.2-22.5,4.2l-3.2,47.9c-0.2,5.2-2.7,9.5-7.5,12.8c-2.1,0.9-4.2,1.3-6.3,1.3h-1.7c-6.6,0-10.5-3-11.6-9.1
			c-1.4-1.3-2.4-50.4-2.8-147c0-4.8,3.1-8.9,9.4-12.3C491.2,327.1,493.9,326.5,496.6,326.5z M512.3,352.6v70.8
			c6.4,0,14.7-1.9,24.8-5.7c21-9.7,31.4-25.2,31.4-46.4c0-16-6.8-25.8-20.4-29.4c-2.7-0.4-4.7-0.6-5.9-0.6h-1.5
			C530.4,341.3,521,345.1,512.3,352.6z"/>
		<path class="angelitoslogo2shortst0" d="M662.2,326.9c15.3,0,25.6,7.2,30.6,21.6c4.4,12.1,6.6,31.1,6.6,56.8c-0.6,49.4-0.9,76-0.9,79.9
			c-1.8,3.2-3.9,4.7-6.2,4.7h-2.4c-3.2,0-4.9-1.9-5.3-5.7c0-9.7,0.2-27.8,0.5-54.6l-0.9,0.5h-53.5c-2.1,39.2-3.8,58.9-5.2,58.9
			c-4.7,5.7-9.9,8.5-15.8,8.5h-2.8c-9.6-1.5-14.4-5.5-14.4-11.9c0.3-29.9,3.2-61.3,8.5-94.2C610.4,348.4,630.8,326.9,662.2,326.9z
			 M632,418.2h53.5v-0.5c0-53.6-6.2-80.3-18.6-80.3c-10.2,0-20.2,17.2-30,51.6C634.6,400.3,633,410,632,418.2z"/>
		<path class="angelitoslogo2shortst0" d="M711.5,327.2h133.6c5.9,0,8.8,1.9,8.8,5.7c0,3.3-2.8,5.4-8.3,6.2h-50.6c0,12.2-0.5,60.3-1.5,144.4
			c0,5.8-4.1,10.1-12.3,12.9c-0.4,0.3-1.6,0.5-3.6,0.5h-4.2c-7.2-1.8-10.8-5.4-10.8-10.8c-0.4-1.4-0.6-2.6-0.6-3.7l-1.5-143.3H709
			c-3,0-5.3-1.2-6.8-3.6v-2.1C702.3,329.7,705.4,327.6,711.5,327.2z"/>
		<path class="angelitoslogo2shortst0" d="M903.5,326.9c15.3,0,25.6,7.2,30.6,21.6c4.4,12.1,6.6,31.1,6.6,56.8c-0.6,49.4-0.9,76-0.9,79.9
			c-1.8,3.2-3.9,4.7-6.2,4.7h-2.4c-3.2,0-4.9-1.9-5.3-5.7c0-9.7,0.2-27.8,0.5-54.6l-0.9,0.5H872c-2.1,39.2-3.8,58.9-5.2,58.9
			c-4.7,5.7-9.9,8.5-15.8,8.5h-2.8c-9.6-1.5-14.4-5.5-14.4-11.9c0.3-29.9,3.2-61.3,8.5-94.2C851.8,348.4,872.2,326.9,903.5,326.9z
			 M873.4,418.2h53.5v-0.5c0-53.6-6.2-80.3-18.6-80.3c-10.2,0-20.2,17.2-30,51.6C876,400.3,874.3,410,873.4,418.2z"/>
		<path class="angelitoslogo2shortst0" d="M1027.8,326.9c18.5,0,30.9,6.3,37.1,18.9c1.3,3.1,2.1,6.8,2.5,11.3c-1.4,12.9-3.6,19.3-6.5,19.3
			c0,0.6-1.2,0.9-3.6,0.9h-0.6c-4.4-0.6-6.6-2.4-6.6-5.6c2.1-4.9,3.1-9.7,3.1-14.2c0-7.8-3.9-13.2-11.6-16.3
			c-4.1-1.7-9.1-2.6-14.8-2.6c-13.5,0-22.5,6.8-26.9,20.4l-0.6,6.1c0,10.3,6.8,19.6,20.4,28c9.1,4.6,16.2,8.7,21.4,12.2
			c18.7,15.1,28,31.3,28,48.4c0,22.2-15.1,35.9-45.3,41.2c-4.4,0.7-8.8,1.1-13.2,1.1h-5.1c-17.2,0-28.8-8-34.7-24
			c-0.6-2.4-0.9-4.4-0.9-6.1v-4.2c1.6-15.3,5.3-22.9,11.2-22.9l1.1-0.5c4.3,0.8,6.5,2.7,6.5,5.6c-3.4,7.9-5.1,13.8-5.1,17.8
			c0,9.9,4.6,16.9,13.8,20.9c5.1,1.3,9.2,2,12.2,2c9.3,0,17.8-4.7,25.5-14.2c2.1-3.2,3.1-6.6,3.1-10.2v-2
			c0-13.4-11.9-26.4-35.7-39.2c-24-10.5-36.1-25.6-36.1-45.3v-0.5c0-21.4,13.9-36.1,41.7-44.3C1018,327.6,1024.7,326.9,1027.8,326.9
			z"/>
	</g>
	<path d="M1068.9,565.1H5c-2.8,0-5-2.2-5-5s2.2-5,5-5h1063.9c2.8,0,5,2.2,5,5S1071.7,565.1,1068.9,565.1z"/>
	<path class="angelitoslogo2shortst3" d="M1068.9,10H5c-2.8,0-5-2.2-5-5s2.2-5,5-5h1063.9c2.8,0,5,2.2,5,5S1071.7,10,1068.9,10z"/>
</g>
</svg>
