<?xml version="1.0" encoding="utf-8"?>
<!-- Generator: Adobe Illustrator 25.3.0, SVG Export Plug-In . SVG Version: 6.00 Build 0)  -->
<svg version="1.1" xmlns="http://www.w3.org/2000/svg" xmlns:xlink="http://www.w3.org/1999/xlink" x="0px" y="0px"
	 viewBox="0 0 944.6 1067" xml:space="preserve">
<style type="text/css">
	.a4PlogoFullst0{fill:#F2AD49;}
	.a4PlogoFullst1{fill:#EAC194;stroke:#444444;stroke-width:5.5688;stroke-linejoin:round;stroke-miterlimit:10;}
	.a4PlogoFullst2{fill:#EAC194;stroke:#444444;stroke-width:5.5688;stroke-linecap:round;stroke-linejoin:round;stroke-miterlimit:10;}
	.a4PlogoFullst3{fill:#F2AD49;stroke:#444444;stroke-width:5.5688;stroke-linejoin:round;stroke-miterlimit:10;}
	.a4PlogoFullst4{fill:none;stroke:#444444;stroke-width:5.5688;stroke-linecap:round;stroke-linejoin:round;stroke-miterlimit:10;}
	.a4PlogoFullst5{fill:#444444;}
	.a4PlogoFullst6{fill:#FFFFFF;}
	.a4PlogoFullst7{fill:#444444;stroke:#444444;stroke-width:5.5688;stroke-linejoin:round;stroke-miterlimit:10;}
</style>
<g>
	<circle class="a4PlogoFullst0" cx="361.4" cy="977.7" r="82.9"/>
	<g>
		<g>
			<path class="a4PlogoFullst1" d="M97.6,580.8c0,0-7.9,19.4,16.9,30.1c24.8,10.8,56.1,23.4,83.4,39.7c27.4,16.3,160.8,68.2,234.5,6.1
				c26.3-22.1,27.8-45.5,14.5-75.1c0,0,30.2-65.9-92.8-154.9c-31.5-22.8-89.5-97.3-99.2-113.5c-9.7-16.1-53.6-6.4-40.7,33.5
				c12.9,39.8,46.8,73,56.5,80.3s20.4,24.6-7.7,26.1s-84.2,2.5-144.5-12.6s-106-34.7-96.1,9.9c0,0-35.6,22.8-0.3,47.5
				c0,0-18.1,34.5,11.4,51C63,565.4,97.6,580.8,97.6,580.8z"/>
			<path class="a4PlogoFullst2" d="M97.6,580.8c0,0,6.2-23.8,31.8-12.5s105.9,25.2,120,27.5"/>
			<path class="a4PlogoFullst2" d="M22.2,497.9c0,0,7.3-15.9,23.2-8.6c15.9,7.3,97.2,49.7,159.5,55.7"/>
			<path class="a4PlogoFullst2" d="M22.5,450.4c0,0,9.5-2.8,30.5,6.1s52.9,27.5,65.1,33.6c0,0,61,12.2,85.6,25.3"/>
		</g>
		<g>
			<path class="a4PlogoFullst1" d="M847,580.8c0,0,7.9,19.4-16.9,30.1c-24.8,10.8-56.1,23.4-83.4,39.7c-27.4,16.3-160.8,68.2-234.5,6.1
				c-26.3-22.1-27.8-45.5-14.5-75.1c0,0-30.2-65.9,92.8-154.9c31.5-22.8,89.5-97.3,99.2-113.5s53.6-6.4,40.7,33.5
				c-12.9,39.8-46.8,73-56.5,80.3s-20.4,24.6,7.7,26.1c28.1,1.5,84.2,2.5,144.5-12.6c60.3-15,106-34.7,96.1,9.9
				c0,0,35.6,22.8,0.3,47.5c0,0,18.1,34.5-11.4,51C881.6,565.4,847,580.8,847,580.8z"/>
			<path class="a4PlogoFullst2" d="M847,580.8c0,0-6.2-23.8-31.8-12.5s-105.9,25.2-120,27.5"/>
			<path class="a4PlogoFullst2" d="M922.4,497.9c0,0-7.3-15.9-23.2-8.6c-15.9,7.3-97.2,49.7-159.5,55.7"/>
			<path class="a4PlogoFullst2" d="M922.1,450.4c0,0-9.5-2.8-30.5,6.1s-52.9,27.5-65.1,33.6c0,0-61,12.2-85.6,25.3"/>
		</g>
	</g>
	<path class="a4PlogoFullst3" d="M615.2,795.1c71.5-70.1,1.3-96.6,1.3-96.6c10.6-58.9-8.6-191.2-8.6-191.2s9.9,11.9,18.5,11.9
		c45.7,0,66.8-84.7,66.8-84.7S614.5,282.3,604.6,279c-9.9-3.3-27.8-4.6-36.4-11.2c-8.6-6.6-37.7-34.4-95.9-34.4
		s-87.3,27.8-95.9,34.4c-8.6,6.6-26.5,7.9-36.4,11.2c-9.9,3.3-88.7,155.5-88.7,155.5s21.1,84.7,66.8,84.7c8.6,0,18.5-11.9,18.5-11.9
		s-19.2,132.3-8.6,191.2c0,0-70.1,26.5,1.3,96.6c0,0-57.6,5.3-41,62.2h183.9h183.9C672.8,800.4,615.2,795.1,615.2,795.1z"/>
	<path class="a4PlogoFullst3" d="M403.7,740.4c0,0,3.1,66.6,9.3,83.4c0,0-42.8-2.6-28.7,43.2h88h88c14.1-45.9-28.7-43.2-28.7-43.2
		c6.2-16.8,9.3-83.4,9.3-83.4"/>
	<line class="a4PlogoFullst4" x1="472.3" y1="704.6" x2="472.3" y2="867"/>
	<path class="a4PlogoFullst4" d="M381.4,570.9l14.3,67l22.5-15.4l13.2,54.3l22.9-27.8c0,0,2.6,50.3,17.9,55.6"/>
	<path class="a4PlogoFullst4" d="M563.2,570.9l-14.3,67l-22.5-15.4l-13.2,54.3L490.2,649c0,0-2.6,50.3-17.9,55.6"/>
	<path class="a4PlogoFullst4" d="M348.1,346.9c0,0-8.1,134.2-11.5,160.3"/>
	<path class="a4PlogoFullst5" d="M400.5,320.7c-10.9,0-18.8,11.6-18.5,23.5c0.3,13.1,25.6,17.5,37.4,5C431.9,335.7,411.8,320.7,400.5,320.7z"/>
	<path class="a4PlogoFullst6" d="M407.8,338.7c-3.6,0-6.5-2.9-6.5-6.5s2.9-6.5,6.5-6.5s6.5,2.9,6.5,6.5S411.3,338.7,407.8,338.7z"/>
	<path class="a4PlogoFullst5" d="M525.2,349.1c11.8,12.6,37,8.1,37.4-5c0.3-11.9-7.6-23.5-18.5-23.5C532.8,320.7,512.7,335.7,525.2,349.1z"/>
	<path class="a4PlogoFullst6" d="M530.4,332.3c0-3.6,2.9-6.5,6.5-6.5c3.6,0,6.5,2.9,6.5,6.5s-2.9,6.5-6.5,6.5
		C533.2,338.7,530.4,335.8,530.4,332.3z"/>
	<path class="a4PlogoFullst5" d="M477.8,391.5h-11c-8,0-20.1,6.5-20.1,14.6l-3.7,25.8c0,8,12.1,14.6,20.1,14.6h18.4c8,0,20.1-6.5,20.1-14.6
		l-3.7-25.8C497.9,398,485.8,391.5,477.8,391.5z"/>
	<path class="a4PlogoFullst3" d="M506.6,502.8c-8.1,11.8-19.6,22.7-34.3,22.7c-14.7,0-26.2-10.9-34.3-22.7c0,0,11.2-16.8,34.3-16.8
		C495.4,485.9,506.6,502.8,506.6,502.8z"/>
	<path class="a4PlogoFullst7" d="M521.2,473.6c-0.3,0.8-5.2,15.6-14.6,29.2c0,0-11.2-16.8-34.3-16.8c-23.1,0-34.3,16.8-34.3,16.8
		c-9.4-13.6-14.4-28.4-14.6-29.2c37.7,16.1,48.9-27.2,48.9-27.2S483.5,489.7,521.2,473.6z"/>
	<path class="a4PlogoFullst4" d="M409.4,436.8c0,0,10.1,27.1,13.9,36.7"/>
	<path class="a4PlogoFullst4" d="M596.5,346.9c0,0,8.1,134.2,11.5,160.3"/>
	<path class="a4PlogoFullst4" d="M535.2,436.8c0,0-10.1,27.1-13.9,36.7"/>
	<path class="a4PlogoFullst4" d="M338.6,731.6c0,0-8.4-15.8-10.6-33.1"/>
	<path class="a4PlogoFullst4" d="M605.9,731.6c0,0,8.4-15.8,10.6-33.1"/>
	<g>
		<g>
			<path class="a4PlogoFullst5" d="M152.1,204.8c16.3,10.2,32.5,21.4,44.4,36.5c3.9,4.9,7.4,10.7,7.1,16.9c-0.2,4.2-2.1,8.2-4.8,11.5
				c-14,17.4-30.5,4.5-44-5.1c-5.4-3.8-13.1-6.3-18.5-2.4c-4.3,3.1-5.5,9.3-4.1,14.5c1.4,5.1,4.8,9.5,8.3,13.5
				c3.4,4.1,7.1,8.2,9,13.1c2.5,6.6,1.6,14.4-2.4,20.2c-4,5.8-11.1,9.4-18.1,9.1c-7.9-0.3-14.9-5-20.8-10.2
				C96.2,312.1,86.9,299.1,78,286C66.4,269,55.3,251.4,48.3,232c-3.5-9.6-5.9-19.7-4.7-29.8c1.2-10.1,6.6-20.1,15.6-24.8
				c8.1-4.2,17.7-3.6,26.6-1.9c20.1,3.8,38.7,12.8,56.3,23.3C145.5,200.7,148.8,202.7,152.1,204.8z M100.2,219.9
				c-3.5-1.7-10.1-4.6-12.8-0.2c-1.7,2.7,0.1,6.8,1.1,9.4c2.1,5.4,7.6,14.2,12.2,17.8c6.3,4.9,15.1,1,17.5-6.1
				c1.1-3.4-0.6-6.4-2.8-8.9C111.1,226.9,106,222.8,100.2,219.9z"/>
			<path class="a4PlogoFullst5" d="M279.3,163c6.8,11.7,14.7,28.3,9.9,41.7c-3.3,9.3-16,15.3-25.2,12c-9.3-3.3-13.7-14.1-16.9-22.8
				c-2.3-6.3-19.4-53.5-37.3-37.1c-21.5,19.6,35.1,45.5,32,71.5c-1.6,13.5-16.5,25.3-29.2,19.3c-7-3.2-12.2-11.1-16.5-18.8
				c-4-5.8-7.5-12.3-10.7-18.1c-7.9-14.1-19.2-30.2-24.6-45.3c-1.8-5-4.4-11.8-2.2-16.7c2.8-6.3,10.4-10,15.6-8.8
				c2.7,0.6,5.5-0.3,7-2.6c6-8.9,12.1-14.3,22-18.5C238.2,103.9,262.9,134.9,279.3,163z"/>
			<path class="a4PlogoFullst5" d="M396.9,178.5c2.3,16.8-2.4,32.6-16.6,42.8c-11.1,8-24.7,12.5-38.4,12.8c-8.3,0.2-17-1.3-22.8-7.8
				c-3.5-3.9-4.9-9.3-3.3-14.3c4.9-14.5,28.1-10.5,38.6-18.6c4.1-3.1,6.8-8.5,5.3-13.4c-0.4-1.4-1.2-2.7-2.4-3.4
				c-2.7-1.5-6,0.3-8.6,1.9c-6,3.7-12.6,6.6-19.6,7.2c-11.4,1-19.8-5-28-13c-15.4-14.8-25.5-42.9-20.5-63.9
				c3.9-16.2,14.9-28.4,31.3-31.1c6.3-1,13-0.7,18.7-3.5c1.7-0.8,4.3-3.6,7.1-7.1c6.1-7.6,18.1-6.2,22.2,2.6c1.9,4,3.7,7.5,4.9,9.7
				c6.1,10.5,9.7,22,14.1,33.4C387.2,133.9,393.8,155.8,396.9,178.5z M345.1,134c-1.3-9.4-8.6-31.8-19.3-24.9
				c-7.6,4.9-5.7,18.5-2.8,25.8c4.2,10.7,12.7,14.5,18.4,11.8C344.4,145.3,346.1,141.4,345.1,134z"/>
			<path class="a4PlogoFullst5" d="M492.6,147.4c-5.2,15.7-18.4,20.6-32.4,23.1c-18.1,3.3-37.2-0.3-49.8-13.9c-15.6-16.9-19-43.5-12-65.5
				c7.6-23.7,27.4-42.1,57.2-37.3c5.8,0.9,11.3,2.9,16.4,5.6c13,7.1,21.4,23.8,19.1,38.6c-1.4,9.2-7.5,15-15.5,17.2
				c-7.9,2.2-16.1,3.2-24.3,3.8c-1.4,0.1-3.3,0.2-5.1,0.5c-3.7,0.7-6.9,2.2-5.2,6.6c2.2,5.3,7.3,7.6,14.7,6.3
				c4.6-0.9,9-3.5,13.3-5.8c6.7-3.6,13.4-5.7,19.7-0.1C495.3,132.2,495.1,140,492.6,147.4z M451.1,100.3c5.1-1.1,7.2-4.5,6.1-9.8
				c-1.1-5.1-4.3-7.9-9.5-7c-5.3,0.9-12.2,9.9-11.1,15C437.5,103.7,445.7,101,451.1,100.3z"/>
			<path class="a4PlogoFullst5" d="M554.6,117.6c-2.1,12.9-3.7,26.9-8.8,39c-5.3,12.5-21.1,24.9-32.6,12.1c-7.6-8.5-7.7-23.1-7.8-33.7
				c-0.1-17.9,2.9-35.1,5.3-52.7c2.6-19,3-37.7,10.2-55.7c2.6-6.5,6.2-12.9,12.1-16.6C572.4-14.8,557.3,100.9,554.6,117.6z"/>
			<path class="a4PlogoFullst5" d="M584.7,185c-9.3,2.1-19.1-3.4-22.4-12.3c-4.7-12.3,0.5-26.7,4-38.7c4.5-15.5,7.3-35.1,15.2-49.3
				c5.1-9.1,12-15.7,23.1-12.7c9.5,2.6,14.2,12,13.9,21.4c-0.6,17.6-5.5,37.8-9,55.2C606.5,162.9,601,181.3,584.7,185z M617.5,22.2
				c22.5,6.3,12.6,40.8-9.6,34.4C584.9,50,595.4,16,617.5,22.2z"/>
			<path class="a4PlogoFullst5" d="M666.9,217.5c-11.7-1-30.8-10-35.9-20.1c-12.9-25.5,9.2-54.9,18.1-78c1.2-3.1-0.1-6.6-3-8.3
				c-6.3-3.9-10.2-10.9-6.7-19.1c3-7.2,8.4-9.9,15.5-8.5c7.7,1.6,14.2,0.4,18.8-6.8c6.7-10.6,15.5-19.7,31-13.2
				c6.9,2.9,10.5,8.6,9.4,16.1c-0.5,3.5-1.8,6.8-3.3,10c-1.7,3.7-7.5,10.5-2.5,14c8,5.5,14.5,14.3,10,24.5c-0.4,1-1,1.9-1.6,2.7
				c-4.2,6.1-12.8,5.2-21.9,2c-2.1-0.8-4.5,0.3-5.4,2.4c-3.6,8.4-5.8,12.1-9.9,20.2c-3.1,6.1-8.3,15.4-8.2,22.4
				c0.2,13,22,7.6,20.6,22.9C690.9,211.7,676.5,218.3,666.9,217.5z"/>
			<path class="a4PlogoFullst5" d="M789.5,234.8c-17.5,21.1-38.1,29-56.1,25c-16.1-3.6-28.9-14-33.1-30.1c-9.3-35.6,20.4-83.5,57.8-87.6
				c14.4-1.6,23.6,4,32,9.6C819.6,171.2,809,211.3,789.5,234.8z M766,203c7.1-9.8,9.5-20.1,3.7-24.3c-5.7-4.1-14.8,1.4-21.9,11.2
				c-7.1,9.8-9.5,20.1-3.7,24.3C749.9,218.3,759,212.8,766,203z"/>
			<path class="a4PlogoFullst5" d="M824.2,326.5c-15.8,2.4-33.2-5.6-43.7-17.3c-8.2-9.2-12.4-20.2-12.3-29.2c0.1-8.7,2.9-16.2,7.4-20.5
				c5.3-5,14.3-6.5,20.3-1.8c4.5,3.5,6.6,9.2,8.3,13.7c1.3,3.4,3.9,16,10.1,11.6c8.1-5.8-0.1-22.6-0.7-30.2
				c-1.5-19.8,10.2-31.2,24.9-34.5c14.2-3.1,31.2,1.4,41.9,13.3c9.8,10.9,14.2,21.2,12.8,29.6c-0.9,5.5-4.3,9.9-9.8,12.9
				c-10,5.4-17.4-1.6-22.8-6.8c-2.5-2.4-7.5-6.9-11.2-4.5c-6.7,4.3-0.9,17.3,0.7,22.9c2.8,10.4-0.2,21.5-6.8,29.5
				C838.5,321.2,831.8,325.4,824.2,326.5z"/>
		</g>
	</g>
	<g>
		<g>
			<path class="a4PlogoFullst5" d="M219.4,903.8c-3.6,40.4-12.4,83-2.5,122.8c1.7,5.9-1.9,12.6-8.2,14.3c-6.1,1.7-12.9-2-14.4-8.1
				c-2-7.8-3.4-16.1-4.2-24.3c-13.4,10.5-36.5,12.1-46.5-5.4c-11.9-20.5-2-55.7,23.8-62.7c8.8-2.2,17.3-0.8,24.5,3.2
				c1.4-13.2,3.1-26.7,4.2-39.7c0.5-6.5,4.8-11.7,11.7-11.7C213.7,892.1,220.1,897.4,219.4,903.8z M163.4,974.1
				c-2.5,7-2.4,15.3,4.1,17.3c5.3,1.5,12.7-2.5,16.3-11.7C189.5,963.9,170.5,956.6,163.4,974.1z"/>
			<path class="a4PlogoFullst5" d="M275.8,1001.8c4.4,4.4,4.9,12.6,0,16.6c-8.3,7.3-19.4,12.4-30.6,8.7c-9.2-3.2-16.8-10.4-21.4-19
				c-13.8-25.8-8.2-62.3,21.9-73.5c20.4-7.6,45.7,10.7,38,33.5c-5.9,18-24.5,25.8-41.9,23.1h0.2c1.5,6.5,9.8,18.3,17.5,10.7
				C263.9,997.6,271,997.1,275.8,1001.8z M244.4,967.5c3.9,7.8,25,0.7,20.2-10.5C259.3,944.4,240.5,959,244.4,967.5z"/>
			<g>
				<g>
					<path class="a4PlogoFullst5" d="M397.7,950.5c-9.5,23.3-12.6,55.4-12.6,81.2c-0.2,14.9-23.6,14.9-23.6,0c0-10.2,1.2-20.4,2.5-30.4
						c-3.9,0.2-7.8,0.5-11.5,0.8c-5.8,0.5-11.5,1.4-17.3,1.2c-5.1-0.2-11.9-1-15.3-5.4c-4.2-5.3-5.8-11.5-3.2-18
						c8.5-22.9,28-40.1,36.5-63.8c2.2-5.9,7.8-9.8,14.4-8.1c5.8,1.7,10.4,8.3,8.3,14.3c-7.6,21.2-22.4,37.9-33.1,57.4
						c8.3-0.5,16.6-1.5,25.1-1.9c1.9-12.2,3.7-22.6,9-33.8C384.3,928.6,402.3,939.3,397.7,950.5z"/>
				</g>
			</g>
			<path class="a4PlogoFullst5" d="M515,967.9c-0.3,15.6-10.9,30.2-26.1,34.5c-7.6,1.9-15.5,1.4-22.4-2c-0.3,15.1-1.5,30.1-3.1,45
				c-0.7,6.5-4.9,11.7-11.7,11.7c-5.9,0-12.6-5.3-11.9-11.7c1.9-17.8,3.4-36.2,3.1-54.3c-0.2-18-1.7-33.6-6.3-50.8
				c-1.7-5.9,2-12.7,8.3-14.4c6.1-1.7,12.7,2,14.4,8.3c1,4.1,2,8,2.9,12.1C481.7,922.9,515.5,937.8,515,967.9z M490.5,974.1
				c2-3.9,2.5-9.2-0.7-13.1s-9.5-4.1-13.8-0.7C460.2,972.9,482.7,989.2,490.5,974.1z"/>
			<path class="a4PlogoFullst5" d="M600.7,951.7c-3.2,19.5-7.5,39.4-0.8,58.4c2.2,6.5-2.5,13.8-8.8,15.5c-6.8,1.9-13.1-2.4-15.3-8.8
				c-0.7-1.9-1.4-3.9-1.9-5.9c-24.1,28.2-48.1,14.9-54.7-7.8c-9-30.7,22.4-73.2,56.9-63.5c0.8,0.3,1.7,0.7,2.4,1
				c3.1-3.7,8.8-5.6,13.4-4.2C599,938.1,601.8,944.9,600.7,951.7z M560.2,987.9c3.7-5.3,7.3-11,9.3-16.5c4.6-11.9-3.9-11.7-11.5-7.1
				c-5.4,3.6-11,10.2-13.9,17.5C536,1002.5,549.1,1005,560.2,987.9z"/>
			<path class="a4PlogoFullst5" d="M676.3,1012c4.6,4.6,4.2,11.7,0,16.5c-11.9,12.9-26,14.8-37.2,6.6c-18.8-13.6-19.9-42.6-19.5-66.1
				c-2.5,0-4.8,0.2-7.1,0.3c-6.5,0.5-11.9-5.8-11.9-11.9c0-6.8,5.4-11.2,11.9-11.7c2.9-0.2,5.6-0.3,8.5-0.3
				c1.2-13.6,2.7-26.8,3.7-40.2c0.5-6.3,5.1-11.5,11.9-11.5c5.9,0,12.2,5.3,11.7,11.5c-1,13.2-2.5,26.3-3.7,39.6
				c4.9,0,15.1-0.5,19.9-0.5c15.3,0,15.3,23.6,0,23.6c-5.3,0-16,0.5-21.2,0.5c-0.7,7-0.8,17.8,1.5,29.5c1.2,5.6,5.3,25.3,14.9,14.1
				C663.9,1007.2,671.9,1007.6,676.3,1012z"/>
			<path class="a4PlogoFullst5" d="M764.6,951.7c-3.2,19.5-7.5,39.4-0.8,58.4c2.2,6.5-2.5,13.8-8.8,15.5c-6.8,1.9-13.1-2.4-15.3-8.8
				c-0.7-1.9-1.4-3.9-1.9-5.9c-24.1,28.2-48.1,14.9-54.7-7.8c-9-30.7,22.4-73.2,56.9-63.5c0.8,0.3,1.7,0.7,2.4,1
				c3.1-3.7,8.8-5.6,13.4-4.2C762.9,938.1,765.6,944.9,764.6,951.7z M724,987.9c3.7-5.3,7.3-11,9.3-16.5c4.6-11.9-3.9-11.7-11.5-7.1
				c-5.4,3.6-11,10.2-13.9,17.5C699.9,1002.5,713,1005,724,987.9z"/>
			<path class="a4PlogoFullst5" d="M823,997.1c6.6,14.4,0.8,30.2-13.6,36.3c-10.5,4.8-23.1,6.3-34.6,4.8c-6.5-0.8-11.9-4.8-11.9-11.5
				c0-5.8,5.4-12.7,11.9-11.7c3.9-0.2,12.4,0.7,18.7-0.3c14.4-2.4,5.1-12.4-1.2-18.7c-11.9-11.4-22.2-25.8-14.9-42.6
				c5.4-13.2,23.8-25.1,39.6-22.2c6.5,1.2,9.8,8.7,8.3,14.4c-1.5,5.9-6.8,8.5-12.2,8.7c-3.9,0.2-8.7,1.9-11.5,4.2
				c-8.8,7.1,4.1,17.3,9.5,23.1C815.5,986,820.3,991.1,823,997.1z"/>
		</g>
	</g>
</g>
</svg>
