<?xml version="1.0" encoding="utf-8"?>
<!-- Generator: Adobe Illustrator 25.3.0, SVG Export Plug-In . SVG Version: 6.00 Build 0)  -->
<svg version="1.1" xmlns="http://www.w3.org/2000/svg" xmlns:xlink="http://www.w3.org/1999/xlink" x="0px" y="0px"
	 viewBox="0 0 907.3 1080" xml:space="preserve">
<style type="text/css">
	.angelitoslogo2fullst0{fill:#B25817;}
	.angelitoslogo2fullst1{fill:#FFFFFF;}
	.angelitoslogo2fullst2{fill:#E9C39E;}
	.angelitoslogo2fullst3{fill:#FFDE56;}
</style>
<g>
	<path class="angelitoslogo2fullst0" d="M676.2,308.6c0-75.2-38.1-158.2-97-205.3l-62.7,79.5h-62.9h0h-62.9l-62.7-79.5c-58.8,47.1-97,130.1-97,205.3
		l-5.4,246.3c0,62.2,6.6,113.9,57.9,124c5,1,10.4,1.6,16.2,1.7c24.9-1.6,43.6-22.3,44.6-47.6c1.2-30.2,12.5-78.7,15-90.4
		c0.3-1.7,0.6-2.6,0.6-2.6c9.6-42.9,47.9-75,93.7-75c45.8,0,84.1,32.1,93.7,75c0,0,0.2,0.9,0.6,2.6c2.4,11.7,13.8,60.2,15,90.4
		c1,25.3,19.7,46,44.6,47.6c5.9-0.1,11.3-0.7,16.2-1.7c51.2-10.1,57.9-61.8,57.9-124L676.2,308.6z"/>
	<ellipse transform="matrix(0.1651 -0.9863 0.9863 0.1651 -320.3321 768.3928)" cx="293.7" cy="573.4" rx="52" ry="34.2"/>
	
		<ellipse transform="matrix(0.3639 -0.9314 0.9314 0.3639 -327.7781 618.939)" class="angelitoslogo2fullst1" cx="289.3" cy="549.5" rx="17.8" ry="11.4"/>
	<ellipse transform="matrix(0.4255 -0.9049 0.9049 0.4255 -374.4323 618.482)" class="angelitoslogo2fullst1" cx="299.9" cy="604.2" rx="9" ry="6.1"/>
	<ellipse transform="matrix(0.9863 -0.1651 0.1651 0.9863 -86.2718 109.2122)" cx="613.6" cy="573.4" rx="34.2" ry="52"/>
	
		<ellipse transform="matrix(0.9314 -0.3639 0.3639 0.9314 -157.5844 262.6101)" class="angelitoslogo2fullst1" cx="618.1" cy="549.5" rx="11.4" ry="17.8"/>
	
		<ellipse transform="matrix(0.9049 -0.4255 0.4255 0.9049 -199.3457 315.8984)" class="angelitoslogo2fullst1" cx="607.4" cy="604.2" rx="6.1" ry="9"/>
	<path class="angelitoslogo2fullst2" d="M488.6,354c-0.5-4-3.8-7.5-8.5-7.5l-26.5,0l-26.5,0c-4.7,0-7.9,3.5-8.5,7.5l0,0c0,0,0,0,0,0
		c-0.1,0.5,0,1.1,0,1.6c0.3,13.6,22,29.7,33,34.3c0.6,0.3,1.3,0.4,1.9,0.4c0.7,0,1.3-0.2,1.9-0.4c11-4.6,32.7-20.7,33-34.3
		C488.6,355.1,488.7,354.5,488.6,354C488.6,354,488.6,354,488.6,354L488.6,354z"/>
	<path class="angelitoslogo2fullst2" d="M392.7,286.1c-3.3-0.8-7.5-1.8-11.2-2.2c-3.8-0.4-7.6-0.6-11.3-0.3c-7.4,0.5-14.4,2.4-20.9,5.7
		c-1.6,1-3.2,1.8-4.8,2.7c-1.6,0.9-3.1,2.2-4.6,3.3c-3.3,1.9-5.9,5-9,7.4c-2.8,2.8-5.5,5.8-8.5,8.7c-2.6,3.2-5.3,6.4-8.3,9.5
		l-0.5,0.6c-2.6,2.7-7,2.8-9.7,0.1c-2.1-2-2.6-5-1.6-7.6c1.8-4.3,3.9-8.5,6.1-12.8c2.7-4,5.3-8,8.4-11.8
		c6.4-7.4,14.2-14.1,23.5-18.6c9.4-4.4,20-6.6,30.3-5.7c10.4,0.9,19.8,4.1,28.4,10.4c2.7,2,3.2,5.8,1.3,8.5c-1.5,2-4,2.8-6.3,2.3
		L392.7,286.1z"/>
	<path class="angelitoslogo2fullst2" d="M514.6,286.1c3.3-0.8,7.5-1.8,11.2-2.2c3.8-0.4,7.6-0.6,11.3-0.3c7.4,0.5,14.4,2.4,20.9,5.7
		c1.6,1,3.2,1.8,4.8,2.7c1.6,0.9,3.1,2.2,4.6,3.3c3.3,1.9,5.9,5,9,7.4c2.8,2.8,5.5,5.8,8.5,8.7c2.6,3.2,5.3,6.4,8.3,9.5l0.5,0.6
		c2.6,2.7,7,2.8,9.7,0.1c2.1-2,2.6-5,1.6-7.6c-1.8-4.3-3.9-8.5-6.1-12.8c-2.7-4-5.3-8-8.4-11.8c-6.4-7.4-14.2-14.1-23.5-18.6
		c-9.4-4.4-20-6.6-30.3-5.7c-10.4,0.9-19.8,4.1-28.4,10.4c-2.7,2-3.2,5.8-1.3,8.5c1.5,2,4,2.8,6.3,2.3L514.6,286.1z"/>
	<path d="M371.8,371.7c-6.9-0.7-13.8-1.3-20.7-1.7c-6.9-0.5-13.8-0.9-20.6-1.2c-13.8-0.6-27.5-1.2-41.3-1.5l-41.4-1.2
		c-13.8-0.4-27.6-0.7-41.5-1.5c6.9-0.8,13.8-1.3,20.7-1.9l20.7-1c13.8-0.5,27.7-0.5,41.5-0.1c13.8,0.5,27.7,1.2,41.5,2.9
		C344.6,366.1,358.4,368,371.8,371.7z"/>
	<path d="M371.8,382.7c-21.5,2.2-42.8,4.2-64,7c-10.6,1.2-21.2,2.9-31.8,4.5c-10.6,1.6-21.1,3.6-31.8,5.4c10-4,20.4-7.4,30.9-9.8
		c10.5-2.5,21.2-4.4,31.9-5.8C328.5,381.5,350.3,380.5,371.8,382.7z"/>
	<path d="M357.9,399.6c-17.7,10.5-36.4,19-55.5,26.6c-9.6,3.7-19.3,7.1-29.2,9.9c-9.9,2.8-20,5.2-30.3,5.8
		c9.9-2.8,19.4-6.5,28.9-10.1l28.5-11C319.4,413.6,338.4,406,357.9,399.6z"/>
	<path d="M535.5,371.7c6.9-0.7,13.8-1.3,20.7-1.7c6.9-0.5,13.8-0.9,20.6-1.2c13.8-0.6,27.5-1.2,41.3-1.5l41.4-1.2
		c13.8-0.4,27.6-0.7,41.5-1.5c-6.9-0.8-13.8-1.3-20.7-1.9l-20.7-1c-13.8-0.5-27.7-0.5-41.5-0.1c-13.8,0.5-27.7,1.2-41.5,2.9
		C562.7,366.1,548.9,368,535.5,371.7z"/>
	<path d="M535.5,382.7c21.5,2.2,42.8,4.2,64,7c10.6,1.2,21.2,2.9,31.8,4.5c10.6,1.6,21.1,3.6,31.8,5.4c-10-4-20.4-7.4-30.9-9.8
		c-10.5-2.5-21.2-4.4-31.9-5.8C578.8,381.5,557.1,380.5,535.5,382.7z"/>
	<path d="M549.4,399.6c17.7,10.5,36.4,19,55.5,26.6c9.6,3.7,19.3,7.1,29.2,9.9c9.9,2.8,20,5.2,30.3,5.8c-9.9-2.8-19.4-6.5-28.9-10.1
		l-28.5-11C587.9,413.6,569,406,549.4,399.6z"/>
	<path d="M907.3,548.2c0,0-80.3,199-195.3,192.1c0,0-32.6,2.7-2.9-123.5c0,0,42.1-149.9-15-208c0,0,10.3-24,34.2-17.3
		C728.4,391.5,854.8,550.9,907.3,548.2"/>
	<path d="M0,548.2c0,0,80.3,199,195.3,192.1c0,0,32.6,2.7,2.9-123.5c0,0-42.1-149.9,15-208c0,0-10.3-24-34.2-17.3
		C179,391.5,52.5,550.9,0,548.2"/>
	<path d="M623.2,803.6c-0.4-2.4-2.6-4-4.8-3.6c-1.7,0.3-2.9,1.8-3.3,3.5l-0.1,0.3c-4.1,20.8-11.3,41.1-23,55
		c-5.8,6.9-12.7,12.4-20.6,15.7c-7.9,3.4-16.6,5-25.6,5.2c-4.5,0.1-9.3-0.1-13.9-0.6c-2.3-0.2-4.6-0.5-6.9-0.9
		c-2.3-0.3-4.5-0.8-6.7-1.3c-2.2-0.4-4.3-1.2-6.5-1.7c-2.1-0.8-4.2-1.4-6.2-2.3c-4.1-1.7-7.9-3.7-11.6-6.1
		c-7.3-4.7-13.4-10.8-18.3-18.1c-2.4-3.7-4.6-7.6-6.3-11.7c-0.5-1.1-0.9-2.3-1.3-3.4l0.2-1.1l0.2-1.4l0.1-0.6
		c51.6-8.7,106.9-73.8,84.5-101.7c-24.1-29.9-170.8-35.1-193.3,0c-16.8,26.3,29.9,86.3,78.5,99.9c0,0.2,0,0.4,0,0.6l0.3,1.8l0.2,1.4
		l0.2,1.1c-0.4,1.1-0.8,2.3-1.3,3.4c-1.8,4.1-3.9,8-6.3,11.7c-4.9,7.3-11.1,13.4-18.3,18.1c-3.6,2.3-7.5,4.4-11.6,6.1
		c-2,0.9-4.1,1.5-6.2,2.3c-2.2,0.6-4.3,1.3-6.5,1.7c-2.2,0.5-4.4,1-6.7,1.3c-2.2,0.4-4.5,0.7-6.9,0.9c-4.6,0.5-9.4,0.7-13.9,0.6
		c-9-0.2-17.7-1.7-25.6-5.2c-7.9-3.3-14.8-8.8-20.6-15.7c-11.7-13.9-18.9-34.2-23-55l-0.1-0.3c-0.3-1.7-1.6-3.1-3.3-3.5
		c-2.2-0.5-4.4,1.1-4.8,3.6c-1.1,6.1-1.3,11.8-1.2,17.8c0.1,5.9,0.7,11.9,1.9,17.8c2.2,11.9,6.6,23.7,13.6,34.2
		c3.5,5.2,7.7,10,12.4,14.2c4.6,4.2,9.9,7.7,15.3,10.6c5.4,3,11.1,4.9,16.9,6.6c2.9,0.7,5.8,1.4,8.7,1.8c2.9,0.3,5.8,0.9,8.7,1
		c5.8,0.4,11.3,0.5,17,0.2c2.8-0.1,5.6-0.3,8.5-0.7c2.8-0.3,5.7-0.8,8.5-1.3c2.8-0.5,5.7-1.3,8.5-2c2.8-0.9,5.7-1.7,8.4-2.8
		c5.6-2,11.1-4.8,16.3-8.1c5.2-3.3,10.2-7.2,14.8-11.6c4.2-4.1,8-8.8,11.4-13.7c3.4,4.9,7.2,9.6,11.4,13.7
		c4.6,4.4,9.6,8.3,14.8,11.6c5.2,3.3,10.7,6.1,16.3,8.1c2.8,1.2,5.6,1.9,8.4,2.8c2.8,0.7,5.7,1.5,8.5,2c2.8,0.5,5.7,1.1,8.5,1.3
		c2.8,0.4,5.7,0.6,8.5,0.7c5.7,0.3,11.1,0.2,17-0.2c2.9-0.1,5.8-0.7,8.7-1c2.9-0.4,5.8-1.2,8.7-1.8c5.7-1.7,11.5-3.6,16.9-6.6
		c5.4-2.9,10.7-6.4,15.3-10.6c4.7-4.2,8.9-8.9,12.4-14.2c7-10.5,11.4-22.3,13.6-34.2c1.1-5.9,1.7-11.9,1.9-17.8
		C624.5,815.4,624.3,809.7,623.2,803.6z"/>
	<path class="angelitoslogo2fullst1" d="M509.2,728.7c0,8-23.9,14.5-53.5,14.5c-29.5,0-53.5-6.5-53.5-14.5c0-8,23.9-14.5,53.5-14.5
		C485.3,714.2,509.2,720.7,509.2,728.7"/>
	<path class="angelitoslogo2fullst3" d="M453.7,0.8c-63.7,0-115.3,21.7-115.3,48.4c0,25.5,46.9,46.3,106.5,48.2c-42.9-1.8-76.4-16.5-76.4-34.3
		c0-19.1,38.2-34.5,85.2-34.5c47.1,0,85.2,15.4,85.2,34.5c0,17.8-33.5,32.5-76.4,34.3C522.1,95.5,569,74.7,569,49.2
		C569,22.5,517.4,0.8,453.7,0.8z"/>
	<g>
		<g>
			<path class="angelitoslogo2fullst0" d="M101.5,767.9c1.9,5.2,0.6,9.5-3.7,12.9c-3.6,3-9.8,6-18.6,9.2c-17,5.8-26.1,9-27.4,9.5
				c-1.3-0.2-2.1-0.7-2.4-1.5l-0.3-0.8c-0.4-1.1,0.1-1.9,1.3-2.5c3.3-1.2,9.5-3.4,18.7-6.5l-0.3-0.3l-6.5-18
				c-13.7,4.1-20.6,5.9-20.8,5.5c-2.5-0.9-4.1-2.3-4.8-4.3l-0.3-1c-0.6-3.4,0.1-5.5,2.3-6.3c10.3-3.6,21.3-6.5,33.2-8.7
				C87.9,753.2,97.7,757.4,101.5,767.9z M66.7,769l6.5,18l0.2-0.1c18.3-6.6,26.7-11.9,25.2-16.1c-1.2-3.4-8.3-4.7-21.3-3.8
				C73.1,767.7,69.6,768.3,66.7,769z"/>
		</g>
		<g>
			<path class="angelitoslogo2fullst0" d="M119.3,808.9c1.1,2.3,1.2,3.7,0.4,4.1c-20,26.7-30,40.1-30.1,40.1l0,0.1l0.1,0
				c25.9-13.6,39.1-20.6,39.6-20.8c1.2-0.7,2.4-0.2,3.5,1.4l0,0c0.3,0.6,0.4,1.3,0.1,2.2l-0.6,0.7c-1.1,0.6-2.2,1.2-3.3,1.7
				c-10,5.5-18.4,10.2-25.3,14l-0.5,0.3c-9.5,5.2-16.9,8.8-22.3,10.8c-0.6,0.3-1.9-0.4-3.8-2.4c-0.3-0.5-0.5-0.9-0.7-1.2l-0.2-0.3
				c-1.2-2.2-1.5-3.9-0.9-5.1c0.1-0.1,3.3-4.5,9.5-13.3c9.5-13.4,14.8-20.8,15.9-22.3l0-0.1l-0.1,0.1l-33.9,18.3
				c-1.2,0.7-2.4,0.3-3.5-1.1l-0.1-0.3c-0.6-1.2-0.4-2.1,0.7-3l0.1,0c4.1-2.2,10.5-5.8,19.2-10.6c16.6-9.1,27.2-14.6,32-16.4
				c1-0.3,1.6-0.1,1.9,0.4C117.3,805.9,118,806.9,119.3,808.9z"/>
		</g>
		<g>
			<path class="angelitoslogo2fullst0" d="M160.5,873.6l1.4,1.9c3.3,4.3,3.6,8.9,0.8,13.8c-1.2,1.3-2.3,2.4-3.4,3.3c-1.2,0.9-2.4,0.7-3.8-0.7
				c-1-1.3-0.7-2.5,0.8-3.7c2.7-2.1,3.8-4.6,3.1-7.6c-0.3-1.2-1-2.4-1.9-3.5c-3.7-4.8-13.2-2.3-28.6,7.5c-1,0.8-2.3,1.7-4,2.8
				c-8.2,6.3-12.1,12-11.6,17c0.3,1.1,0.6,1.9,0.9,2.3l0.8,1.1c2,2.6,5.9,3,11.6,1.2c4.2-1.8,7.1-3.3,8.7-4.6l-4.3-5.5
				c-0.6-0.8-0.7-1.7-0.4-2.7l0.7-0.5c0.9-0.7,2-0.4,3.3,0.9l8.4,10.9c0.8,1.4,0.8,2.4-0.1,3l-0.1,0.1c-0.9,0.7-2.1,0.4-3.5-0.9
				l-0.9-1.2l-0.1,0.1c-4.6,3.6-10.1,5.7-16.3,6.3c-4.9-0.1-8.8-2-11.6-5.7c-6.7-8.7-6.5-17.7,0.5-27.1c2.2-2.7,4.5-5,7.1-7
				c8.4-6.5,17.9-9.4,28.5-8.8C152.9,867.2,157.5,869.7,160.5,873.6z"/>
		</g>
		<g>
			<path class="angelitoslogo2fullst0" d="M188.3,905.6l14.8,14.5c1.4,1.4,1.7,2.5,0.9,3.4l-0.2,0.2c-1,1-2.4,0.6-4.3-1.3l-10.4-10.2
				c-13,12.8-20.2,19.9-21.6,21.2l7.9,7.7c1.2,1.2,1.4,2.2,0.7,2.9l-0.1,0.1c-1.2,0.9-2.3,1-3.1,0.2l-8.2-8.1
				c-5.1,4.9-9.3,9.1-12.7,12.5l-0.7,0.5l11.3,11.1c0.7,1.1,0.7,2,0.1,2.6l-0.1,0.1c-0.8,0.8-2.1,0.6-3.8-0.9L145,948.8
				c-2.2-2.2-2.2-4.4,0.1-6.7l34.7-37.3c1.7-1.7,4-1.9,6.9-0.5C187.1,904.5,187.7,904.9,188.3,905.6z"/>
		</g>
		<g>
			<path class="angelitoslogo2fullst0" d="M222.7,937c2.1,2.1,2.6,3.9,1.5,5.3c-1.8,2.4-12.9,16.5-33.4,42.3l17.7,13.4c0.8,0.9,0.9,1.8,0.4,2.4
				l-0.4,0.5c-1,0.8-1.8,0.9-2.5,0.4l-22.2-16.8c-1.6-1.2-2.1-2.8-1.3-4.6c0.1-0.3,0.2-0.5,0.2-0.6l31-42.8c1.4-1.8,3.8-2,7.4-0.7
				L222.7,937z"/>
		</g>
		<g>
			<path class="angelitoslogo2fullst0" d="M257.1,961l10.8,6.7c1.3,1,1.6,2,1,2.9c-0.6,0.9-1.7,1-3.4,0.4l-28.8,45c-0.2,0.2-0.3,0.3-0.4,0.4l1.2,0.7
				c1,0.6,1.4,1.5,1,2.7c-0.6,1-1.8,1.2-3.5,0.5l-10.6-6.5c-1.5-0.9-2-2-1.3-3.1c0.5-0.8,1.5-1,3.1-0.5l1.5,0.9
				c1.6-2.7,10.8-18.1,27.5-46.4l-0.8-0.5c-1.2-0.9-1.5-1.8-1-2.7C254.2,960.4,255.4,960.3,257.1,961z"/>
		</g>
		<g>
			<path class="angelitoslogo2fullst0" d="M285.5,978.3l43.7,19.2c1.9,0.8,2.6,1.9,2,3.2c-0.5,1.1-1.7,1.4-3.6,0.9l-16.5-7.3c-1.8,4.1-9,20-21.7,47.8
				c-0.8,1.9-2.8,2.8-5.9,2.5c-0.2,0-0.6-0.1-1.2-0.4l-1.4-0.6c-2.1-1.6-2.7-3.4-1.9-5.1c0.1-0.5,0.2-1,0.3-1.3l20.5-47.9l-16.8-7.4
				c-1-0.4-1.5-1.2-1.7-2.2l0.3-0.7C282.2,977.8,283.5,977.6,285.5,978.3z"/>
		</g>
		<g>
			<path class="angelitoslogo2fullst0" d="M360.7,1006.8c3.5,1,6.6,3,9.3,6.2c2.1,3,3.3,5.6,3.6,7.7c0.5,1.5,0.8,3.8,0.9,6.8c-0.1,3.6-0.5,6.9-1.3,9.7
				l-0.5,1.9c-1.8,6.7-5.3,12.9-10.3,18.5c-1.5,1.7-3.7,3.5-6.7,5.4c-5,2.7-9.7,3.5-14.2,2.3l-1.1-0.3c-8.5-2.3-13.6-8.3-15.2-17.9
				c-0.6-4.8-0.2-9.6,1.2-14.4l0.1-0.3c2.2-8.1,6.5-15,12.8-20.4C346.1,1006.4,353.3,1004.7,360.7,1006.8z M338.4,1037
				c-2.4,8.7-2.5,15.4-0.4,20.1c1.2,2.2,2.7,3.5,4.6,4c4.9,1.4,10.1-0.6,15.4-6c4.7-5.1,8-11.1,9.9-18.1c2.2-8,1.8-14.9-1.3-20.5
				c-2.1-3.1-4.5-4.9-6.9-5.6c-2.4-0.7-4.4-0.5-5.9,0.6c-2.6,1.4-5.2,4.1-7.8,8.2C342.7,1025,340.2,1030.8,338.4,1037z"/>
		</g>
		<g>
			<path class="angelitoslogo2fullst0" d="M421.3,1017.4c6.6,0.7,10.7,3.4,12.5,8.2c0.3,1.2,0.5,2.6,0.5,4.2c-1,4.6-2,6.9-3,6.8c0,0.2-0.5,0.3-1.3,0.2
				l-0.2,0c-1.6-0.4-2.3-1.1-2.2-2.3c0.9-1.7,1.5-3.4,1.6-5c0.3-2.8-0.9-4.9-3.5-6.3c-1.4-0.8-3.1-1.3-5.2-1.5
				c-4.8-0.5-8.3,1.6-10.3,6.4l-0.4,2.2c-0.4,3.7,1.7,7.3,6.2,10.9c3.1,2,5.4,3.7,7.1,5.2c6.1,6.1,8.8,12.3,8.1,18.5
				c-0.8,8-6.7,12.4-17.6,13.2c-1.6,0.1-3.2,0.1-4.7-0.1l-1.8-0.2c-6.1-0.6-9.9-3.9-11.4-9.9c-0.1-0.9-0.2-1.6-0.1-2.2l0.2-1.5
				c1.1-5.5,2.7-8.1,4.8-7.9l0.4-0.1c1.5,0.4,2.2,1.2,2.1,2.3c-1.5,2.7-2.3,4.8-2.5,6.2c-0.4,3.6,1,6.3,4.1,8
				c1.8,0.7,3.2,1.1,4.3,1.2c3.3,0.3,6.5-1.1,9.6-4.2c0.9-1.1,1.3-2.3,1.5-3.6l0.1-0.7c0.5-4.8-3.2-10-11.2-15.5
				c-8.1-4.7-11.9-10.6-11.1-17.7l0-0.2c0.8-7.7,6.3-12.5,16.4-14.5C417.8,1017.3,420.2,1017.2,421.3,1017.4z"/>
		</g>
		<g>
			<path class="angelitoslogo2fullst0" d="M484.9,1018.2l1-0.1c2-0.2,3.6,0.5,4.8,2.3c0.3,0.3,0.4,0.6,0.4,0.9l0.2,1.4c3.1-2.9,6.5-4.6,10.1-5
				c5.2-0.6,9.6,1.7,13.2,6.8c1.9,3.1,3.1,7.1,3.7,11.9c1.2,10.5-1,20.6-6.5,30.1c-4.2,6-9.4,9.4-15.7,10.1l-0.9,0
				c-0.9,1.5-2.2,2.3-3.9,2.5c-2,0.2-3.6-0.6-4.7-2.5c0-0.1-0.1-0.3-0.2-0.5l-6.7-52.4c-0.2-1.8,1-3.5,3.6-5.1
				C483.6,1018.5,484.2,1018.3,484.9,1018.2z M491.8,1029.1c0.4,3.9,1.8,18.4,4.2,43.4l0.8-0.1c7.6-0.9,13-7.7,16-20.5
				c1-5.2,1.2-10.1,0.7-14.6l0-0.1c-1.1-9.3-4.5-14.4-10.4-15.3c-0.4,0-0.8,0-1.2,0l-0.6,0.1
				C497.2,1022.4,494.1,1024.8,491.8,1029.1z"/>
		</g>
		<g>
			<path class="angelitoslogo2fullst0" d="M542.3,1009.1l20.1-5.4c1.9-0.5,3.1-0.2,3.4,0.9l0.1,0.3c0.4,1.4-0.7,2.4-3.3,3.1l-14.1,3.8
				c4.4,17.7,6.9,27.5,7.3,29.4l10.7-2.9c1.6-0.4,2.6-0.1,2.9,0.9l0,0.2c0.1,1.5-0.3,2.5-1.4,2.7l-11.1,3c1.6,6.9,3,12.6,4.3,17.3
				l0,0.8l15.3-4.1c1.3-0.1,2.1,0.4,2.3,1.2l0,0.2c0.3,1.1-0.6,2.1-2.7,2.9l-18.6,5c-3,0.8-4.9-0.4-5.7-3.5l-14.4-48.8
				c-0.6-2.3,0.4-4.4,3.1-6.2C540.8,1009.6,541.4,1009.4,542.3,1009.1z"/>
		</g>
		<g>
			<path class="angelitoslogo2fullst0" d="M628.9,975.3l0.6-0.3c1.9-1,3.8-0.9,5.9,0.2c0.3,0.2,0.7,0.6,1.1,1.1c7.3,13.9,12.3,23.6,15.1,29.1l2.9-1.5
				c1-0.5,2-0.4,2.8,0.4l0.3,0.5c0.2,0.3,0.1,0.8-0.2,1.5c-0.4,0.5-0.9,0.9-1.5,1.3l-2.5,1.3c4,7.7,6.6,12.6,7.7,14.9
				c0.6,1.2,0.4,2.7-0.8,4.6c-0.7,1-1.6,1.7-2.5,2.2c-2.2,1.1-4.4,1-6.6-0.4c-0.7,0-1.2-0.4-1.7-1.2c-0.7-1.3-3.1-6.1-7.4-14.2l0,0
				c-8.4,4.4-12.9,6.8-13.7,7.2c-0.6,0.4-1,0.6-1.1,0.7c-1.6,0.5-2.6,0.3-3.1-0.6l-0.1-0.1c-0.2-0.3-0.1-3,0.1-7.9
				c0.7-21.5,1.1-32.5,1.1-32.8c0.1-0.1,0.2-0.7,0.2-1.9C626.2,977.4,627.3,976.1,628.9,975.3z M629.7,990.8c0,0.1-0.2,9-0.9,26.5
				l0,0.1c6.3-3.3,10.1-5.4,11.5-6.1l0-0.1C637.9,1006.4,634.4,999.6,629.7,990.8L629.7,990.8L629.7,990.8z"/>
		</g>
		<g>
			<path class="angelitoslogo2fullst0" d="M681.3,942l0.5-0.4c1.6-1.3,3.5-1.6,5.5-0.7c0.5,0.3,0.8,0.6,1,0.8c1.4-3.8,3.5-6.8,6.4-9.2
				c3.1-2.5,6.5-3.7,10.2-3.4c3.8,0.5,7,2.3,9.4,5.3l0.9,1.1c4.8,5.9,6,12.8,3.5,20.9c-0.7,2.1-1.7,4.2-3,6.3c-2,2.9-3.8,5-5.3,6.3
				l10.1,14.2c1.2,1.5,1.4,3.3,0.9,5.3c-0.4,0.7-0.9,1.3-1.4,1.8l-0.5,0.4c-1.8,1.5-3.6,1.5-5.3,0.1c-0.7-0.1-12.2-13.6-34.6-40.7
				c-1.1-1.4-1.2-3.2-0.2-5.6C679.9,943.4,680.5,942.6,681.3,942z M691.6,945.8l16.3,19.9c1.8-1.4,3.6-3.9,5.6-7.2
				c3.6-7.5,2.9-14.2-2-20.2c-3.7-4.5-7.8-5.7-12.4-3.7c-0.8,0.5-1.4,0.9-1.8,1.2l-0.4,0.4C694.1,938.5,692.3,941.7,691.6,945.8z"/>
		</g>
		<g>
			<path class="angelitoslogo2fullst0" d="M732,895.3c3.7-4,8.1-4.9,13.2-2.6c4.3,1.9,9.9,6,16.7,12.4c12.9,12.4,19.9,19.1,20.9,20.1
				c0.4,1.3,0.3,2.2-0.2,2.8l-0.6,0.6c-0.8,0.8-1.7,0.8-2.8,0c-2.6-2.4-7.3-7-14.4-13.7l-0.1,0.4l-13.1,13.9
				c9.9,10.3,14.7,15.6,14.3,16c0.4,2.6-0.2,4.7-1.6,6.2l-0.7,0.7c-2.7,2.1-5,2.4-6.7,0.8c-7.8-7.5-15.5-16.1-22.9-25.6
				C725.1,914.2,724.3,903.5,732,895.3z M748.8,925.9l13.1-13.9l-0.1-0.1c-14.2-13.3-22.8-18.3-25.8-15.1c-2.5,2.7-0.4,9.5,6.4,20.7
				C744.7,920.8,746.9,923.6,748.8,925.9z"/>
		</g>
		<g>
			<path class="angelitoslogo2fullst0" d="M751.1,873.9l27.1-39.2c1.2-1.7,2.3-2.2,3.5-1.4c1,0.7,1,1.9,0.2,3.7l-10.3,14.8
				c3.6,2.5,17.9,12.6,42.8,30.3c1.7,1.2,2.2,3.3,1.4,6.3c0,0.2-0.2,0.6-0.6,1.1l-0.8,1.2c-2,1.7-3.8,2.1-5.4,0.9
				c-0.5-0.2-0.9-0.4-1.2-0.6L764.6,862l-10.5,15.1c-0.6,0.9-1.4,1.3-2.4,1.2l-0.6-0.4C750,877.1,750,875.8,751.1,873.9z"/>
		</g>
		<g>
			<path class="angelitoslogo2fullst0" d="M792.1,808.1c2.5-4.9,6.6-6.9,12-6c4.6,0.6,11.1,3.1,19.4,7.5c15.8,8.5,24.3,13.1,25.5,13.8
				c0.7,1.1,0.9,2,0.5,2.8l-0.4,0.7c-0.5,1-1.4,1.2-2.7,0.7c-3.1-1.6-8.9-4.8-17.5-9.4l0,0.4l-8.9,16.9
				c12.3,7.3,18.3,11.1,18.1,11.6c1.1,2.4,1.1,4.6,0.1,6.4l-0.5,0.9c-2.1,2.8-4.1,3.6-6.2,2.5c-9.6-5.2-19.2-11.4-28.9-18.6
				C790.4,828.1,786.9,818,792.1,808.1z M816.5,833l8.9-16.9l-0.2-0.1c-17.2-9-26.9-11.6-28.9-7.7c-1.7,3.2,2.2,9.3,11.6,18.2
				C811.1,829.2,814,831.3,816.5,833z"/>
		</g>
		<g>
			<path class="angelitoslogo2fullst0" d="M813.5,757.4c2.2-6.2,5.8-9.6,10.9-10.2c1.2-0.1,2.6,0.1,4.2,0.5c4.2,2,6.2,3.6,5.8,4.5
				c0.2,0.1,0.2,0.5-0.1,1.3l-0.1,0.2c-0.7,1.4-1.6,1.9-2.7,1.6c-1.4-1.3-2.9-2.2-4.5-2.8c-2.7-0.9-5-0.3-7,1.9
				c-1.1,1.2-2,2.7-2.7,4.7c-1.6,4.6-0.4,8.4,3.8,11.5l2,0.9c3.5,1.3,7.5,0.1,12-3.5c2.7-2.5,4.9-4.4,6.7-5.7
				c7.4-4.5,14-5.6,19.9-3.6c7.6,2.7,10.5,9.4,8.7,20.3c-0.3,1.6-0.7,3.1-1.2,4.6l-0.6,1.7c-2.1,5.8-6.2,8.7-12.3,8.8
				c-0.9-0.1-1.6-0.2-2.2-0.4l-1.4-0.5c-5-2.4-7.2-4.6-6.5-6.5l0-0.4c0.8-1.4,1.7-1.9,2.7-1.5c2.3,2.1,4.1,3.4,5.5,3.9
				c3.4,1.2,6.3,0.5,8.8-2.1c1.1-1.6,1.8-2.9,2.1-3.9c1.1-3.1,0.5-6.6-1.8-10.3c-0.9-1.1-1.9-1.8-3.1-2.3l-0.7-0.2
				c-4.6-1.6-10.5,0.8-17.7,7.3c-6.5,6.8-13.1,9-19.8,6.6l-0.2-0.1c-7.3-2.6-10.7-9.1-10.2-19.4
				C812.6,760.8,813.1,758.4,813.5,757.4z"/>
		</g>
	</g>
</g>
</svg>
