<?xml version="1.0" encoding="utf-8"?>
<!-- Generator: Adobe Illustrator 25.3.0, SVG Export Plug-In . SVG Version: 6.00 Build 0)  -->
<svg version="1.1" xmlns="http://www.w3.org/2000/svg" xmlns:xlink="http://www.w3.org/1999/xlink" x="0px" y="0px"
	 viewBox="0 0 500 500" xml:space="preserve">
<path d="M373.4,0H126.6C56.7,0,0,56.7,0,126.6v246.9C0,443.3,56.7,500,126.6,500h84.9V321.4h-62.7V250h62.7v-54.4
	c0-61.9,36.9-96.1,93.3-96.1c27,0,55.3,4.8,55.3,4.8v60.8h-31.1c-30.7,0-40.2,19-40.2,38.6V250h68.5l-10.9,71.4h-57.5V500l0.1,0
	h84.8c69.9,0,126.6-56.7,126.6-126.6V126.6C500,56.7,443.3,0,373.4,0z"/>
</svg>
