<?xml version="1.0" encoding="utf-8"?>
<!-- Generator: Adobe Illustrator 25.3.0, SVG Export Plug-In . SVG Version: 6.00 Build 0)  -->
<svg version="1.1" xmlns="http://www.w3.org/2000/svg" xmlns:xlink="http://www.w3.org/1999/xlink" x="0px" y="0px"
	 viewBox="0 0 174 736.2" xml:space="preserve">
<g>
	<g>
		<path d="M52.2,730.4c-1.3-0.1-2.6-0.1-3.8-0.4c-4-0.9-7.8-0.5-11.4,1.6c-0.6,0.3-1.2,0.6-1.9,0.8c-3.1,1-6.1,0.9-8.6-1.4
			c-2.6-2.4-3.7-5.5-2.7-8.9c0.6-1.9,1.7-3.9,3.1-5.4c2.3-2.5,4-5.3,5-8.6c0.1-0.3,0.2-0.7,0.3-1c1.1-3.3,2.9-5.8,6.5-6.3
			c3.5-0.4,6,1.4,7.8,4.3c2.1,3.4,4.8,6,8.2,8.1c3.6,2.1,5.6,5.4,5,9.8C59.1,727.1,56.3,729.8,52.2,730.4z"/>
		<path d="M53.2,686.9c0.3,2.8,0.1,5.6-1.7,8c-2.7,3.6-7.6,3.7-10.3,0.1c-3-4-2.3-12.8,1.4-16.2c2.2-2.1,5.4-2.2,7.2,0.3
			c1.6,2.2,2.6,5,3.9,7.5C53.5,686.7,53.4,686.8,53.2,686.9z"/>
		<path d="M20.3,690.9c0.3-2.2,0.4-4.8,1.2-7.2c1.4-4,5.4-4.9,8.5-2.1c3.3,3,5,7,4.9,11.5c-0.1,3.6-2.1,6.1-4.9,6.8
			c-3.1,0.7-6.1-0.7-7.8-3.9C21.4,694.5,21,692.9,20.3,690.9z"/>
		<path d="M66.8,698.1c0.2,3,0.1,5.9-1.4,8.6c-1.6,2.9-4.6,4.3-7.3,3.5c-2.7-0.8-4.5-3.5-4.4-6.7c0.1-3.3,1.1-6.3,3.1-8.9
			c1.4-1.8,3.1-3.2,5.5-2.8c2.5,0.4,3.5,2.4,4.1,4.6C66.6,697,66.7,697.6,66.8,698.1z"/>
		<path d="M24.7,708c0.5,3.5-0.6,6-2.8,7.2c-2.1,1.2-4.8,0.9-7.1-0.8c-3.3-2.5-5.4-8.8-4.2-12.8c0.9-3,3.5-4.4,6.4-3.1
			C21.5,700.4,23.6,704.2,24.7,708z"/>
	</g>
	<g>
		<path d="M141.4,722.6c-1.1-0.6-2.4-1.1-3.4-1.8c-3.4-2.4-7-3.5-11.2-3c-0.7,0.1-1.4,0-2,0c-3.3-0.2-6-1.5-7.5-4.6
			c-1.5-3.2-1.3-6.5,0.9-9.3c1.3-1.6,3.1-2.9,4.9-3.8c3.1-1.4,5.7-3.4,7.9-6c0.2-0.3,0.4-0.5,0.6-0.8c2.2-2.6,5-4.3,8.4-3.3
			c3.4,0.9,5,3.7,5.5,7c0.6,3.9,2.1,7.4,4.4,10.6c2.5,3.4,3.1,7.1,0.9,10.9C149.1,722.2,145.5,723.6,141.4,722.6z"/>
		<path d="M159.2,682.8c-0.8,2.7-2,5.2-4.6,6.8c-3.9,2.3-8.4,0.5-9.5-3.9c-1.3-4.9,2.8-12.7,7.5-14.4c2.8-1.1,5.8,0.1,6.5,3.1
			c0.7,2.7,0.5,5.6,0.7,8.4C159.5,682.8,159.4,682.8,159.2,682.8z"/>
		<path d="M127.2,673.9c1.1-1.9,2.2-4.3,3.9-6.2c2.8-3.2,6.9-2.5,8.7,1.3c1.9,4.1,1.9,8.4,0.1,12.5c-1.5,3.3-4.3,4.8-7.1,4.4
			c-3.1-0.5-5.4-3-5.7-6.6C126.9,677.6,127.1,676,127.2,673.9z"/>
		<path d="M167.4,698.5c-0.9,2.9-2.2,5.5-4.6,7.4c-2.6,2-5.9,2.2-8.1,0.4c-2.2-1.7-2.8-4.9-1.5-7.8c1.3-3,3.4-5.4,6.3-7.1
			c2-1.2,4.1-1.8,6.2-0.4c2.1,1.3,2.3,3.6,2.1,5.8C167.7,697.3,167.5,697.9,167.4,698.5z"/>
		<path d="M124.8,691.3c-0.9,3.4-2.9,5.3-5.3,5.6c-2.4,0.3-4.8-1-6.2-3.5c-2.1-3.6-1.6-10.1,1-13.4c1.9-2.4,4.9-2.7,7.1-0.4
			C124.7,683.1,125.2,687.4,124.8,691.3z"/>
	</g>
	<g>
		<path d="M46.8,567.4c-1.2,0-2.4,0.1-3.5-0.1c-3.7-0.6-7.2,0-10.4,2.1c-0.5,0.3-1.1,0.6-1.7,0.8c-2.8,1.1-5.5,1.2-8-0.7
			c-2.6-2-3.7-4.8-3-8c0.4-1.8,1.3-3.7,2.5-5.1c2-2.5,3.3-5.1,4.1-8.1c0.1-0.3,0.1-0.6,0.2-0.9c0.8-3.1,2.3-5.5,5.6-6.2
			c3.2-0.6,5.6,1,7.4,3.5c2.1,3,4.7,5.3,8,6.9c3.4,1.8,5.4,4.6,5.2,8.6C52.9,564,50.5,566.6,46.8,567.4z"/>
		<path d="M45.1,527.4c0.4,2.6,0.4,5.1-1,7.4c-2.2,3.5-6.7,3.8-9.4,0.7c-3-3.5-2.9-11.6,0.3-14.9c1.9-2,4.8-2.3,6.6-0.1
			c1.6,2,2.7,4.4,4,6.6C45.4,527.2,45.3,527.3,45.1,527.4z"/>
		<path d="M15.2,533.1c0.2-2,0.1-4.4,0.7-6.7c1-3.8,4.6-4.9,7.7-2.4c3.2,2.6,5,6.1,5.1,10.2c0.1,3.3-1.5,5.7-4.1,6.5
			c-2.8,0.8-5.6-0.3-7.4-3.1C16.4,536.3,16,534.9,15.2,533.1z"/>
		<path d="M58.3,537c0.4,2.7,0.5,5.4-0.8,7.9c-1.3,2.7-4,4.2-6.5,3.6c-2.5-0.6-4.3-2.9-4.4-5.8c-0.1-3,0.6-5.8,2.3-8.4
			c1.1-1.8,2.7-3.1,4.9-2.9c2.3,0.2,3.3,2,4.1,3.9C58,535.9,58.1,536.4,58.3,537z"/>
		<path d="M20.3,548.5c0.6,3.1-0.2,5.5-2.1,6.8c-1.9,1.2-4.4,1.1-6.5-0.3c-3.2-2.1-5.4-7.7-4.6-11.4c0.6-2.8,2.9-4.2,5.7-3.2
			C16.9,541.7,19.1,545.1,20.3,548.5z"/>
	</g>
	<g>
		<path d="M134.6,537c-0.9-0.8-1.9-1.4-2.7-2.3c-2.5-2.9-5.6-4.6-9.4-5c-0.6-0.1-1.2-0.2-1.8-0.4c-2.9-0.9-5.1-2.6-5.7-5.6
			c-0.7-3.2,0.2-6.1,2.8-8.1c1.5-1.1,3.4-2,5.2-2.4c3.1-0.6,5.8-1.9,8.3-3.7c0.3-0.2,0.5-0.4,0.7-0.6c2.5-1.9,5.3-2.8,8.2-1.2
			c2.8,1.5,3.7,4.3,3.5,7.4c-0.3,3.6,0.3,7.1,1.8,10.4c1.5,3.5,1.3,7-1.5,10C141.5,538.2,138,538.7,134.6,537z"/>
		<path d="M158.7,505c-1.3,2.3-2.9,4.2-5.5,5.1c-3.9,1.3-7.6-1.3-7.7-5.4c-0.1-4.6,5.1-10.8,9.7-11.3c2.8-0.4,5.2,1.3,5.2,4.1
			c0,2.6-0.7,5.1-1.1,7.7C159.1,505.1,158.9,505.1,158.7,505z"/>
		<path d="M132,490.4c1.4-1.4,2.9-3.4,4.8-4.7c3.2-2.3,6.7-0.8,7.5,3c0.9,4.1,0,7.9-2.5,11.2c-2,2.6-4.8,3.4-7.3,2.4
			c-2.7-1.1-4.2-3.8-3.7-7.1C130.9,493.7,131.5,492.3,132,490.4z"/>
		<path d="M162.8,520.7c-1.4,2.4-3.1,4.5-5.6,5.6c-2.8,1.3-5.7,0.7-7.3-1.3c-1.6-2-1.5-5,0.3-7.3c1.8-2.4,4.2-4.1,7.1-5
			c2-0.6,4-0.7,5.6,0.9c1.6,1.6,1.3,3.7,0.6,5.6C163.3,519.8,163,520.3,162.8,520.7z"/>
		<path d="M126.2,505.5c-1.5,2.8-3.7,4.1-5.9,3.9c-2.2-0.2-4.1-1.9-4.8-4.4c-1.1-3.7,0.7-9.4,3.7-11.8c2.2-1.8,4.9-1.4,6.4,1.1
			C127.8,498.2,127.4,502.1,126.2,505.5z"/>
	</g>
	<g>
		<path d="M72.6,409c-1-0.3-2.2-0.6-3.1-1.1c-3.2-1.6-6.4-2-9.8-1c-0.6,0.2-1.1,0.2-1.7,0.3c-2.8,0.2-5.3-0.4-6.9-2.9
			c-1.7-2.5-2-5.3-0.5-7.9c0.9-1.5,2.2-2.9,3.6-3.9c2.4-1.6,4.4-3.6,5.9-6.1c0.2-0.2,0.3-0.5,0.4-0.8c1.5-2.5,3.6-4.3,6.7-3.9
			c3,0.3,4.7,2.4,5.6,5.1c1,3.2,2.7,6,5.2,8.4c2.5,2.5,3.6,5.6,2.2,9.1C79,407.6,76.2,409.3,72.6,409z"/>
		<path d="M82.2,373c-0.3,2.4-1,4.7-3,6.3c-3,2.5-7,1.5-8.6-2c-1.7-3.9,0.6-11.1,4.4-13.2c2.3-1.3,4.9-0.7,5.9,1.7
			c0.9,2.2,1.2,4.7,1.7,7C82.5,372.9,82.3,372.9,82.2,373z"/>
		<path d="M54,369.7c0.7-1.7,1.3-3.9,2.4-5.8c1.9-3.1,5.5-3,7.5,0c2.2,3.2,2.8,6.8,1.8,10.5c-0.8,3-2.9,4.7-5.4,4.6
			c-2.7,0-4.9-1.8-5.7-4.8C54.2,373,54.2,371.5,54,369.7z"/>
		<path d="M91.2,385.1c-0.4,2.5-1.1,4.9-2.9,6.8c-1.9,2.1-4.7,2.6-6.8,1.4c-2.1-1.2-3-3.8-2.3-6.4c0.7-2.7,2.2-5,4.3-6.8
			c1.5-1.2,3.2-2,5.2-1.2c2,0.8,2.4,2.7,2.5,4.6C91.3,384.1,91.3,384.6,91.2,385.1z"/>
		<path d="M54.3,384.8c-0.3,3-1.7,4.9-3.7,5.4c-2,0.6-4.2-0.2-5.7-2.1c-2.2-2.8-2.7-8.4-0.9-11.5c1.3-2.3,3.7-2.9,5.9-1.3
			C53.1,377.9,54.1,381.5,54.3,384.8z"/>
	</g>
	<g>
		<path d="M140.9,365.6c-0.9-0.6-2-1-2.8-1.7c-2.7-2.2-5.8-3.4-9.4-3.1c-0.6,0-1.2,0-1.7-0.1c-2.8-0.4-5-1.6-6.1-4.3
			c-1.1-2.8-0.8-5.6,1.3-7.9c1.2-1.3,2.8-2.4,4.4-3c2.7-1.1,5.1-2.6,7.1-4.7c0.2-0.2,0.4-0.4,0.6-0.6c2-2.1,4.5-3.4,7.4-2.4
			c2.9,1,4.1,3.4,4.3,6.2c0.3,3.4,1.4,6.4,3.2,9.3c1.9,3,2.3,6.2,0.2,9.4C147.4,365.7,144.3,366.7,140.9,365.6z"/>
		<path d="M158.1,332.5c-0.8,2.3-2,4.3-4.3,5.5c-3.4,1.8-7.2,0-7.9-3.8c-0.8-4.2,3-10.7,7.1-11.9c2.5-0.8,4.9,0.4,5.4,3
			c0.4,2.3,0.1,4.8,0.2,7.2C158.4,332.5,158.2,332.5,158.1,332.5z"/>
		<path d="M131.3,323.2c1.1-1.5,2.1-3.6,3.6-5.1c2.6-2.6,6-1.8,7.3,1.6c1.4,3.6,1.2,7.2-0.6,10.7c-1.4,2.7-3.9,3.9-6.3,3.4
			c-2.6-0.6-4.4-2.8-4.5-5.9C130.8,326.4,131.1,325,131.3,323.2z"/>
		<path d="M164.3,346.3c-1,2.4-2.1,4.6-4.3,6c-2.4,1.6-5.2,1.5-7-0.1c-1.7-1.6-2.1-4.3-0.9-6.8c1.3-2.5,3.2-4.4,5.7-5.7
			c1.7-0.9,3.6-1.3,5.3-0.1c1.8,1.3,1.8,3.2,1.5,5.1C164.6,345.4,164.4,345.9,164.3,346.3z"/>
		<path d="M128.3,338c-1,2.8-2.8,4.4-4.8,4.5c-2.1,0.1-4-1.1-5.1-3.3c-1.6-3.2-0.8-8.7,1.6-11.4c1.8-2,4.3-2.1,6.1,0
			C128.6,331,128.9,334.7,128.3,338z"/>
	</g>
	<g>
		<path d="M68.1,228.9c-1-0.3-2-0.4-2.9-0.8c-3-1.3-5.9-1.5-9-0.4c-0.5,0.2-1,0.3-1.6,0.3c-2.5,0.4-4.8-0.1-6.4-2.2
			c-1.7-2.2-2.1-4.7-0.8-7.2c0.7-1.4,1.8-2.8,3.1-3.7c2.1-1.6,3.8-3.5,5-5.9c0.1-0.2,0.2-0.5,0.4-0.7c1.3-2.4,3-4.1,5.9-3.9
			c2.7,0.1,4.4,1.9,5.4,4.4c1.1,2.9,2.8,5.3,5.2,7.3c2.4,2.1,3.5,4.9,2.5,8.2C73.8,227.4,71.3,229,68.1,228.9z"/>
		<path d="M74.8,195.7c-0.2,2.2-0.7,4.3-2.4,5.9c-2.5,2.4-6.3,1.8-7.9-1.3c-1.8-3.5,0-10.1,3.2-12.2c2-1.3,4.4-0.9,5.5,1.2
			c1,1.9,1.3,4.2,2,6.3C75.1,195.6,74.9,195.7,74.8,195.7z"/>
		<path d="M49,194.3c0.6-1.6,1-3.6,1.9-5.4c1.6-2.9,4.8-3.1,6.8-0.4c2.1,2.8,2.9,6,2.2,9.5c-0.6,2.7-2.4,4.4-4.7,4.5
			c-2.4,0.1-4.6-1.4-5.4-4.1C49.4,197.3,49.3,196,49,194.3z"/>
		<path d="M83.7,206.2c-0.2,2.3-0.7,4.5-2.2,6.4c-1.7,2-4.1,2.7-6.1,1.7c-1.9-1-2.9-3.3-2.4-5.7c0.5-2.5,1.7-4.7,3.6-6.4
			c1.3-1.2,2.8-2,4.6-1.4c1.8,0.7,2.3,2.3,2.5,4.1C83.7,205.3,83.7,205.8,83.7,206.2z"/>
		<path d="M50.1,208c-0.1,2.7-1.3,4.5-3.1,5.1c-1.8,0.6-3.8,0-5.3-1.6c-2.2-2.4-2.9-7.4-1.5-10.3c1.1-2.2,3.2-2.9,5.3-1.5
			C48.7,201.8,49.8,205,50.1,208z"/>
	</g>
	<g>
		<path d="M132,211.8c-0.9-0.5-1.8-0.8-2.7-1.4c-2.6-1.9-5.5-2.7-8.7-2.3c-0.5,0.1-1.1,0-1.6,0c-2.5-0.2-4.7-1.2-5.8-3.6
			c-1.2-2.5-1-5.1,0.8-7.2c1-1.2,2.4-2.3,3.8-2.9c2.4-1.1,4.5-2.6,6.2-4.6c0.2-0.2,0.3-0.4,0.5-0.6c1.7-2,3.9-3.3,6.6-2.6
			c2.6,0.7,3.9,2.8,4.3,5.4c0.5,3.1,1.6,5.8,3.4,8.3c1.9,2.6,2.4,5.5,0.7,8.5C137.9,211.6,135.2,212.6,132,211.8z"/>
		<path d="M145.9,180.9c-0.6,2.1-1.6,4-3.6,5.2c-3,1.8-6.5,0.4-7.4-3c-1-3.8,2.2-9.9,5.8-11.2c2.2-0.8,4.5,0.1,5.1,2.4
			c0.5,2.1,0.4,4.4,0.5,6.5C146.2,180.9,146,180.9,145.9,180.9z"/>
		<path d="M121,173.9c0.9-1.5,1.7-3.3,3-4.8c2.2-2.5,5.4-1.9,6.7,1.1c1.5,3.2,1.5,6.5,0,9.7c-1.2,2.5-3.3,3.8-5.5,3.4
			c-2.4-0.4-4.2-2.3-4.4-5.1C120.7,176.8,120.9,175.5,121,173.9z"/>
		<path d="M152.2,193.1c-0.7,2.2-1.7,4.3-3.6,5.7c-2.1,1.6-4.6,1.7-6.3,0.3c-1.7-1.4-2.2-3.8-1.1-6.1c1-2.3,2.7-4.2,4.9-5.5
			c1.5-0.9,3.2-1.4,4.8-0.3c1.7,1,1.8,2.8,1.6,4.5C152.5,192.2,152.3,192.7,152.2,193.1z"/>
		<path d="M119.1,187.5c-0.7,2.6-2.3,4.1-4.1,4.3c-1.9,0.2-3.7-0.8-4.8-2.7c-1.6-2.8-1.2-7.9,0.8-10.4c1.5-1.9,3.8-2.1,5.5-0.3
			C119,181.1,119.5,184.4,119.1,187.5z"/>
	</g>
	<g>
		<path d="M129.3,41c-0.9-0.1-1.8-0.1-2.6-0.4c-2.8-0.8-5.4-0.6-8,0.7c-0.4,0.2-0.9,0.4-1.3,0.5c-2.2,0.6-4.2,0.5-5.9-1.2
			c-1.7-1.7-2.4-3.9-1.6-6.2c0.5-1.3,1.3-2.6,2.3-3.6c1.7-1.7,2.9-3.6,3.7-5.8c0.1-0.2,0.2-0.4,0.2-0.7c0.8-2.2,2.2-3.9,4.7-4.1
			c2.4-0.2,4.1,1.2,5.2,3.2c1.3,2.4,3.1,4.3,5.4,5.9c2.4,1.6,3.7,3.9,3.2,6.9C134.2,39,132.2,40.8,129.3,41z"/>
		<path d="M131.5,11c0.1,2-0.1,3.9-1.4,5.5c-2,2.4-5.4,2.3-7.1-0.3c-2-2.9-1.2-8.9,1.5-11.1c1.6-1.4,3.8-1.3,5,0.5
			c1.1,1.6,1.6,3.5,2.4,5.3C131.7,10.9,131.6,10.9,131.5,11z"/>
		<path d="M108.6,12.7c0.3-1.5,0.4-3.3,1.1-4.9c1.1-2.7,3.9-3.2,6-1.2c2.2,2.2,3.2,5,3,8.1c-0.2,2.5-1.6,4.2-3.6,4.5
			c-2.1,0.4-4.2-0.7-5.3-3C109.2,15.2,109,14.1,108.6,12.7z"/>
		<path d="M140.5,19.2c0.1,2.1-0.1,4.1-1.2,5.9c-1.2,1.9-3.3,2.8-5.2,2.2c-1.8-0.6-3-2.5-2.8-4.8c0.2-2.3,1-4.3,2.4-6.1
			c1-1.2,2.3-2.1,3.9-1.7c1.7,0.4,2.3,1.8,2.7,3.3C140.4,18.4,140.4,18.8,140.5,19.2z"/>
		<path d="M111.1,24.6c0.2,2.4-0.6,4.1-2.1,4.9c-1.5,0.8-3.4,0.5-4.9-0.8c-2.2-1.9-3.4-6.2-2.5-9c0.7-2,2.5-2.9,4.5-1.9
			C109.1,19.3,110.5,22,111.1,24.6z"/>
	</g>
	<g>
		<path d="M53,80.2c-0.9-0.1-1.8-0.1-2.6-0.4c-2.8-0.8-5.4-0.6-8,0.7C42,80.8,41.5,80.9,41,81c-2.2,0.6-4.2,0.5-5.9-1.2
			c-1.7-1.7-2.4-3.9-1.6-6.2c0.5-1.3,1.3-2.6,2.3-3.6c1.7-1.7,2.9-3.6,3.7-5.8c0.1-0.2,0.2-0.4,0.2-0.7c0.8-2.2,2.2-3.9,4.7-4.1
			c2.4-0.2,4.1,1.2,5.2,3.2c1.3,2.4,3.1,4.3,5.4,5.9c2.4,1.6,3.7,3.9,3.2,6.9C57.8,78.2,55.9,79.9,53,80.2z"/>
		<path d="M55.1,50.2c0.1,2-0.1,3.9-1.4,5.5c-2,2.4-5.4,2.3-7.1-0.3c-2-2.9-1.2-8.9,1.5-11.1c1.6-1.4,3.8-1.3,5,0.5
			c1.1,1.6,1.6,3.5,2.4,5.3C55.4,50.1,55.2,50.1,55.1,50.2z"/>
		<path d="M32.2,51.9c0.3-1.5,0.4-3.3,1.1-4.9c1.1-2.7,3.9-3.2,6-1.2c2.2,2.2,3.2,5,3,8.1c-0.2,2.5-1.6,4.2-3.6,4.5
			c-2.1,0.4-4.2-0.7-5.3-3C32.9,54.4,32.7,53.3,32.2,51.9z"/>
		<path d="M64.2,58.4c0.1,2.1-0.1,4.1-1.2,5.9c-1.2,1.9-3.3,2.8-5.2,2.2c-1.8-0.6-3-2.5-2.8-4.8c0.2-2.3,1-4.3,2.4-6.1
			c1-1.2,2.3-2.1,3.9-1.7c1.7,0.4,2.3,1.8,2.7,3.3C64.1,57.6,64.1,58,64.2,58.4z"/>
		<path d="M34.8,63.8c0.2,2.4-0.6,4.1-2.1,4.9c-1.5,0.8-3.4,0.5-4.9-0.8c-2.2-1.9-3.4-6.2-2.5-9c0.7-2,2.5-2.9,4.5-1.9
			C32.8,58.5,34.1,61.2,34.8,63.8z"/>
	</g>
</g>
</svg>
