<?xml version="1.0" encoding="utf-8"?>
<!-- Generator: Adobe Illustrator 25.3.0, SVG Export Plug-In . SVG Version: 6.00 Build 0)  -->
<svg version="1.1" xmlns="http://www.w3.org/2000/svg" xmlns:xlink="http://www.w3.org/1999/xlink" x="0px" y="0px"
	 viewBox="0 0 218.1 802.7" xml:space="preserve">
<g>
	<g>
		<path d="M124.5,783.5c-1.2,0.5-2.3,1.2-3.6,1.5c-4,1.1-7.1,3.3-9.3,6.8c-0.4,0.6-0.8,1.1-1.3,1.6c-2.2,2.4-4.9,3.7-8.3,2.9
			c-3.5-0.9-5.9-3.1-6.6-6.6c-0.4-2-0.3-4.2,0.2-6.2c0.8-3.3,1-6.6,0.3-9.9c-0.1-0.3-0.1-0.7-0.2-1c-0.6-3.4-0.2-6.5,2.8-8.6
			c2.9-2.1,6-1.6,8.9,0.1c3.4,2,7.1,3.1,11,3.3c4.2,0.2,7.5,2.1,9.1,6.2C129,777.3,127.8,781,124.5,783.5z"/>
		<path d="M104.7,744.6c1.6,2.4,2.8,4.9,2.3,7.8c-0.6,4.5-4.9,6.8-9,5c-4.6-2.1-8.1-10.1-6.5-14.9c1-2.9,3.7-4.4,6.5-3.1
			c2.5,1.2,4.7,3.1,7,4.7C105,744.3,104.9,744.5,104.7,744.6z"/>
		<path d="M77.7,763.8c-0.7-2.1-2-4.4-2.4-6.9c-0.7-4.2,2.4-6.9,6.5-5.9c4.4,1.1,7.7,3.8,9.7,7.8c1.6,3.2,1.1,6.4-1.1,8.3
			c-2.4,2.1-5.7,2.3-8.7,0.3C80.4,766.4,79.3,765.2,77.7,763.8z"/>
		<path d="M122.1,748.1c1.6,2.5,2.9,5.1,2.8,8.2c-0.1,3.3-2,6-4.8,6.6c-2.7,0.6-5.6-0.9-7-3.8c-1.5-2.9-2-6.1-1.5-9.3
			c0.3-2.3,1.2-4.3,3.5-5.1c2.4-0.8,4.2,0.5,5.8,2.1C121.4,747.1,121.7,747.6,122.1,748.1z"/>
		<path d="M89.7,776.7c2,2.8,2.3,5.6,1,7.7c-1.3,2.1-3.8,3.1-6.6,2.6c-4.1-0.7-8.9-5.2-9.8-9.2c-0.7-3.1,1-5.5,4.2-5.8
			C83.3,771.6,87,773.9,89.7,776.7z"/>
	</g>
	<g>
		<path d="M199.4,734.3c-1.3,0-2.6,0.2-3.9,0c-4.1-0.5-7.8,0.2-11.2,2.7c-0.5,0.4-1.2,0.7-1.8,1c-3,1.3-6,1.5-8.7-0.5
			c-2.9-2.1-4.2-5.1-3.6-8.6c0.4-2,1.3-4.1,2.5-5.7c2.1-2.8,3.4-5.7,4.1-9c0.1-0.3,0.1-0.7,0.2-1c0.7-3.4,2.3-6.1,5.9-6.9
			c3.4-0.8,6.2,0.8,8.2,3.5c2.4,3.2,5.3,5.5,8.9,7.3c3.8,1.8,6.1,4.8,6,9.2C205.9,730.3,203.5,733.2,199.4,734.3z"/>
		<path d="M196.1,690.8c0.6,2.8,0.7,5.6-0.9,8.1c-2.3,3.9-7.2,4.4-10.2,1.1c-3.4-3.7-3.6-12.5-0.3-16.2c2-2.3,5.1-2.7,7.2-0.4
			c1.9,2.1,3.1,4.7,4.6,7.1C196.4,690.6,196.3,690.7,196.1,690.8z"/>
		<path d="M163.7,698.1c0.1-2.2-0.1-4.8,0.5-7.3c1-4.1,4.9-5.5,8.3-2.9c3.6,2.7,5.7,6.4,6,11c0.2,3.6-1.5,6.3-4.2,7.2
			c-3,1-6.1-0.1-8.1-3.1C165.2,701.6,164.7,700,163.7,698.1z"/>
		<path d="M210.8,700.7c0.5,3,0.7,5.9-0.5,8.7c-1.4,3-4.2,4.7-7,4.2c-2.7-0.5-4.8-3-5-6.2c-0.3-3.3,0.5-6.4,2.2-9.2
			c1.2-2,2.8-3.5,5.2-3.3c2.5,0.2,3.7,2.1,4.6,4.1C210.5,699.5,210.6,700.1,210.8,700.7z"/>
		<path d="M169.9,714.6c0.8,3.4-0.1,6-2,7.4c-2,1.4-4.7,1.4-7.1-0.1c-3.5-2.2-6.2-8.2-5.4-12.3c0.6-3.1,3-4.7,6.1-3.7
			C165.9,707.4,168.4,711,169.9,714.6z"/>
	</g>
	<g>
		<path d="M63.7,610.5c-1.1,0.5-2.1,1.2-3.2,1.6c-3.6,1.2-6.4,3.4-8.2,6.7c-0.3,0.5-0.7,1-1.1,1.5c-1.9,2.3-4.3,3.7-7.4,3.1
			c-3.2-0.6-5.5-2.5-6.4-5.7c-0.5-1.8-0.5-3.9-0.2-5.7c0.6-3.1,0.5-6.1-0.2-9.1c-0.1-0.3-0.2-0.6-0.2-0.9c-0.8-3.1-0.5-6,2.1-8.1
			c2.5-2,5.4-1.8,8.2-0.4c3.3,1.7,6.6,2.4,10.3,2.4c3.8,0,7,1.5,8.6,5.2C67.5,604.6,66.6,608,63.7,610.5z"/>
		<path d="M43.5,576c1.6,2.1,2.8,4.3,2.6,7.1c-0.3,4.1-4.2,6.5-8,5c-4.3-1.7-8-8.9-6.7-13.3c0.7-2.7,3.1-4.3,5.8-3.2
			c2.4,1,4.4,2.6,6.6,4C43.7,575.7,43.6,575.8,43.5,576z"/>
		<path d="M19.7,595c-0.8-1.9-2-4-2.5-6.2c-0.9-3.8,1.8-6.5,5.6-5.7c4.1,0.8,7.3,3,9.3,6.6c1.6,2.8,1.3,5.8-0.6,7.6
			c-2.1,2-5.1,2.4-8,0.7C22.4,597.3,21.3,596.2,19.7,595z"/>
		<path d="M59.6,578.2c1.6,2.2,2.9,4.6,3,7.4c0.1,3.1-1.5,5.6-4.1,6.3c-2.4,0.7-5.1-0.6-6.6-3.1c-1.5-2.6-2.2-5.4-1.9-8.5
			c0.2-2.1,0.9-4,3-4.8c2.1-0.9,3.9,0.2,5.4,1.6C58.9,577.4,59.2,577.9,59.6,578.2z"/>
		<path d="M31.5,606.2c2,2.5,2.4,5,1.3,7c-1.1,2-3.3,3-5.9,2.8c-3.8-0.4-8.4-4.3-9.4-7.9c-0.8-2.8,0.6-5.1,3.5-5.5
			C25.3,601.9,28.8,603.8,31.5,606.2z"/>
	</g>
	<g>
		<path d="M127,542.4c-1.2-0.3-2.4-0.4-3.5-0.8c-3.6-1.3-7.1-1.4-10.6,0c-0.6,0.2-1.2,0.4-1.8,0.5c-3,0.6-5.7,0.1-7.7-2.3
			c-2.1-2.5-2.7-5.5-1.4-8.4c0.8-1.7,2-3.3,3.5-4.5c2.4-2,4.3-4.4,5.6-7.2c0.1-0.3,0.3-0.6,0.4-0.9c1.4-2.8,3.4-4.9,6.7-4.9
			c3.2,0,5.3,2.1,6.5,4.9c1.5,3.4,3.6,6.1,6.4,8.4c3,2.4,4.4,5.6,3.4,9.5C133.7,540.3,130.9,542.4,127,542.4z"/>
		<path d="M133.3,502.9c-0.1,2.6-0.6,5.1-2.5,7.1c-2.9,3-7.4,2.4-9.4-1.2c-2.3-4-0.5-11.9,3.2-14.6c2.3-1.6,5.1-1.3,6.5,1.2
			c1.2,2.2,1.8,4.8,2.6,7.3C133.7,502.8,133.5,502.9,133.3,502.9z"/>
		<path d="M102.9,502.5c0.6-1.9,0.9-4.3,2-6.4c1.7-3.5,5.5-3.8,8-0.9c2.7,3.2,3.7,7,3,11.1c-0.5,3.2-2.6,5.3-5.3,5.6
			c-2.9,0.3-5.5-1.4-6.6-4.5C103.5,506,103.3,504.5,102.9,502.5z"/>
		<path d="M144.4,514.9c-0.2,2.8-0.6,5.4-2.3,7.6c-1.9,2.4-4.7,3.3-7.1,2.3c-2.3-1-3.6-3.7-3.2-6.6c0.5-3,1.8-5.6,3.9-7.7
			c1.5-1.5,3.2-2.5,5.4-1.9c2.2,0.7,2.9,2.6,3.2,4.7C144.3,513.8,144.3,514.4,144.4,514.9z"/>
		<path d="M104.8,518.6c0,3.2-1.3,5.4-3.4,6.2c-2.1,0.8-4.5,0.2-6.3-1.6c-2.7-2.7-3.8-8.6-2.2-12.1c1.2-2.6,3.7-3.5,6.2-2
			C102.8,511.4,104.3,515.1,104.8,518.6z"/>
	</g>
	<g>
		<path d="M38.8,387.4c-1.1-0.3-2.2-0.5-3.2-0.9c-3.3-1.4-6.5-1.6-9.9-0.4c-0.5,0.2-1.1,0.3-1.7,0.4c-2.8,0.4-5.3-0.1-7.1-2.4
			c-1.9-2.4-2.3-5.2-0.9-7.9c0.8-1.6,2-3,3.4-4.1c2.3-1.8,4.2-3.9,5.5-6.5c0.1-0.3,0.3-0.5,0.4-0.8c1.4-2.6,3.3-4.5,6.4-4.3
			c3,0.1,4.9,2.1,5.9,4.8c1.2,3.2,3.1,5.8,5.7,8.1c2.7,2.3,3.9,5.4,2.8,9C45.1,385.7,42.4,387.5,38.8,387.4z"/>
		<path d="M46.2,350.9c-0.2,2.4-0.7,4.7-2.6,6.5c-2.8,2.7-6.9,2-8.7-1.5c-2-3.8,0-11.1,3.6-13.4c2.2-1.4,4.8-1,6,1.4
			c1,2.1,1.5,4.6,2.2,6.9C46.5,350.8,46.4,350.8,46.2,350.9z"/>
		<path d="M17.9,349.3c0.6-1.8,1-4,2.1-5.9c1.8-3.2,5.3-3.4,7.5-0.5c2.4,3.1,3.2,6.6,2.4,10.4c-0.6,3-2.7,4.8-5.1,5
			c-2.7,0.1-5-1.5-6-4.5C18.3,352.5,18.2,351.1,17.9,349.3z"/>
		<path d="M56,362.4c-0.3,2.6-0.8,5-2.5,7c-1.8,2.2-4.5,2.9-6.7,1.8c-2.1-1-3.2-3.6-2.7-6.3c0.6-2.8,1.9-5.1,3.9-7.1
			c1.4-1.3,3.1-2.2,5.1-1.5c2,0.7,2.6,2.6,2.8,4.5C56,361.4,56,361.9,56,362.4z"/>
		<path d="M19.1,364.4c-0.1,3-1.4,5-3.4,5.7c-2,0.7-4.2,0-5.8-1.8c-2.4-2.6-3.2-8.2-1.6-11.4c1.2-2.4,3.6-3.2,5.8-1.6
			C17.5,357.5,18.7,361,19.1,364.4z"/>
	</g>
	<g>
		<path d="M104.4,340c-1-0.5-2-0.9-2.9-1.6c-2.9-2.1-6-3-9.5-2.6c-0.6,0.1-1.2,0-1.7,0c-2.8-0.2-5.1-1.3-6.4-3.9
			c-1.3-2.8-1.1-5.6,0.8-7.9c1.1-1.3,2.6-2.5,4.2-3.2c2.7-1.2,4.9-2.9,6.8-5.1c0.2-0.2,0.4-0.5,0.6-0.7c1.9-2.2,4.2-3.6,7.2-2.8
			c2.9,0.8,4.3,3.1,4.7,6c0.5,3.4,1.8,6.3,3.8,9.1c2.1,2.9,2.6,6.1,0.7,9.4C110.9,339.7,107.8,340.9,104.4,340z"/>
		<path d="M119.6,306c-0.7,2.3-1.8,4.5-4,5.8c-3.3,2-7.2,0.4-8.2-3.3c-1.1-4.2,2.4-10.8,6.4-12.3c2.4-0.9,4.9,0.1,5.6,2.7
			c0.6,2.3,0.4,4.8,0.6,7.2C119.9,306,119.7,306,119.6,306z"/>
		<path d="M92.3,298.3c1-1.6,1.9-3.7,3.3-5.3c2.4-2.7,5.9-2.1,7.4,1.2c1.6,3.5,1.6,7.1,0,10.7c-1.3,2.8-3.7,4.1-6.1,3.7
			c-2.7-0.5-4.6-2.6-4.9-5.7C92,301.5,92.2,300.1,92.3,298.3z"/>
		<path d="M126.6,319.4c-0.8,2.4-1.9,4.7-3.9,6.3c-2.3,1.7-5.1,1.9-7,0.3c-1.8-1.5-2.4-4.2-1.3-6.7c1.1-2.6,2.9-4.6,5.4-6
			c1.7-1,3.5-1.5,5.3-0.4c1.8,1.1,1.9,3.1,1.8,5C126.8,318.4,126.7,318.9,126.6,319.4z"/>
		<path d="M90.1,313.2c-0.8,2.9-2.5,4.5-4.6,4.8c-2.1,0.3-4.1-0.9-5.3-3c-1.8-3.1-1.3-8.7,0.9-11.5c1.7-2.1,4.2-2.3,6.1-0.3
			C90.1,306.2,90.5,309.9,90.1,313.2z"/>
	</g>
	<g>
		<path d="M57.2,195.3c-1-0.3-2-0.4-2.9-0.8c-3-1.3-5.9-1.5-9-0.4c-0.5,0.2-1,0.3-1.6,0.3c-2.5,0.4-4.8-0.1-6.4-2.2
			c-1.7-2.2-2.1-4.7-0.8-7.2c0.7-1.4,1.8-2.8,3.1-3.7c2.1-1.6,3.8-3.5,5-5.9c0.1-0.2,0.2-0.5,0.4-0.7c1.3-2.4,3-4.1,5.9-3.9
			c2.7,0.1,4.4,1.9,5.4,4.4c1.1,2.9,2.8,5.3,5.2,7.3c2.4,2.1,3.5,4.9,2.5,8.2C62.9,193.7,60.5,195.4,57.2,195.3z"/>
		<path d="M64,162c-0.2,2.2-0.7,4.3-2.4,5.9c-2.5,2.4-6.3,1.8-7.9-1.3c-1.8-3.5,0-10.1,3.2-12.2c2-1.3,4.4-0.9,5.5,1.2
			c1,1.9,1.3,4.2,2,6.3C64.2,162,64.1,162,64,162z"/>
		<path d="M38.2,160.6c0.6-1.6,1-3.6,1.9-5.4c1.6-2.9,4.8-3.1,6.8-0.4c2.1,2.8,2.9,6,2.2,9.5c-0.6,2.7-2.4,4.4-4.7,4.5
			c-2.4,0.1-4.6-1.4-5.4-4.1C38.6,163.6,38.5,162.3,38.2,160.6z"/>
		<path d="M72.9,172.6c-0.2,2.3-0.7,4.5-2.2,6.4c-1.7,2-4.1,2.7-6.1,1.7c-1.9-1-2.9-3.3-2.4-5.7c0.5-2.5,1.7-4.7,3.6-6.4
			c1.3-1.2,2.8-2,4.6-1.4c1.8,0.7,2.3,2.3,2.5,4.1C72.9,171.6,72.8,172.1,72.9,172.6z"/>
		<path d="M39.3,174.3c-0.1,2.7-1.3,4.5-3.1,5.1c-1.8,0.6-3.8,0-5.3-1.6c-2.2-2.4-2.9-7.4-1.5-10.3c1.1-2.2,3.2-2.9,5.3-1.5
			C37.8,168.1,39,171.3,39.3,174.3z"/>
	</g>
	<g>
		<path d="M121.2,178.1c-0.9-0.5-1.8-0.8-2.7-1.4c-2.6-1.9-5.5-2.7-8.7-2.3c-0.5,0.1-1.1,0-1.6,0c-2.5-0.2-4.7-1.2-5.8-3.6
			c-1.2-2.5-1-5.1,0.8-7.2c1-1.2,2.4-2.3,3.8-2.9c2.4-1.1,4.5-2.6,6.2-4.6c0.2-0.2,0.3-0.4,0.5-0.6c1.7-2,3.9-3.3,6.6-2.6
			c2.6,0.7,3.9,2.8,4.3,5.4c0.5,3.1,1.6,5.8,3.4,8.3c1.9,2.6,2.4,5.5,0.7,8.5C127.1,177.9,124.3,179,121.2,178.1z"/>
		<path d="M135,147.2c-0.6,2.1-1.6,4-3.6,5.2c-3,1.8-6.5,0.4-7.4-3c-1-3.8,2.2-9.9,5.8-11.2c2.2-0.8,4.5,0.1,5.1,2.4
			c0.5,2.1,0.4,4.4,0.5,6.5C135.3,147.2,135.2,147.2,135,147.2z"/>
		<path d="M110.2,140.2c0.9-1.5,1.7-3.3,3-4.8c2.2-2.5,5.4-1.9,6.7,1.1c1.5,3.2,1.5,6.5,0,9.7c-1.2,2.5-3.3,3.8-5.5,3.4
			c-2.4-0.4-4.2-2.3-4.4-5.1C109.9,143.1,110.1,141.9,110.2,140.2z"/>
		<path d="M141.4,159.4c-0.7,2.2-1.7,4.3-3.6,5.7c-2.1,1.6-4.6,1.7-6.3,0.3c-1.7-1.4-2.2-3.8-1.1-6.1c1-2.3,2.7-4.2,4.9-5.5
			c1.5-0.9,3.2-1.4,4.8-0.3c1.7,1,1.8,2.8,1.6,4.5C141.6,158.5,141.5,159,141.4,159.4z"/>
		<path d="M108.2,153.8c-0.7,2.6-2.3,4.1-4.1,4.3c-1.9,0.2-3.7-0.8-4.8-2.7c-1.6-2.8-1.2-7.9,0.8-10.4c1.5-1.9,3.8-2.1,5.5-0.3
			C108.2,147.4,108.6,150.8,108.2,153.8z"/>
	</g>
	<g>
		<path d="M169.1,68.2c-0.6-0.7-1.2-1.3-1.7-2.1c-1.5-2.4-3.5-4.1-6.3-4.9c-0.4-0.1-0.9-0.3-1.3-0.6c-2-1-3.4-2.6-3.5-4.9
			c-0.1-2.5,1-4.5,3.1-5.6c1.2-0.7,2.8-1,4.2-1.1c2.4-0.1,4.6-0.6,6.7-1.6c0.2-0.1,0.4-0.2,0.6-0.3c2.1-1.1,4.3-1.4,6.3,0.2
			c1.9,1.5,2.2,3.7,1.6,5.9c-0.7,2.7-0.7,5.3-0.1,8c0.7,2.8,0,5.4-2.4,7.2C174,70,171.4,70,169.1,68.2z"/>
		<path d="M191.2,47.7c-1.3,1.5-2.7,2.8-4.8,3c-3.1,0.4-5.5-2-5-5.1c0.5-3.4,5.2-7.3,8.7-7.1c2.1,0.1,3.7,1.6,3.3,3.7
			c-0.3,1.9-1.2,3.7-1.8,5.5C191.4,47.8,191.3,47.7,191.2,47.7z"/>
		<path d="M173.3,33.3c1.2-0.9,2.6-2.1,4.2-2.9c2.7-1.3,5.1,0.3,5.1,3.2c0.1,3.1-1,5.8-3.4,8c-1.8,1.7-4,1.9-5.7,0.8
			c-1.8-1.2-2.6-3.4-1.8-5.7C172.1,35.6,172.7,34.6,173.3,33.3z"/>
		<path d="M192.2,59.9c-1.4,1.6-2.9,2.9-4.9,3.4c-2.2,0.6-4.4-0.2-5.3-2c-0.9-1.7-0.4-3.9,1.2-5.4c1.7-1.6,3.6-2.5,5.9-2.8
			c1.6-0.2,3.1,0,4.1,1.4c1,1.4,0.5,2.9-0.3,4.3C192.7,59.2,192.4,59.6,192.2,59.9z"/>
		<path d="M167,43.8c-1.5,1.9-3.3,2.6-4.9,2.1c-1.6-0.5-2.8-2-3-3.9c-0.3-2.9,1.8-6.9,4.3-8.2c1.9-1,3.8-0.4,4.6,1.7
			C169.2,38.5,168.4,41.4,167,43.8z"/>
	</g>
	<g>
		<path d="M86.6,44.6c-0.6-0.7-1.2-1.3-1.7-2.1c-1.5-2.4-3.5-4.1-6.3-4.9c-0.4-0.1-0.9-0.3-1.3-0.6c-2-1-3.4-2.6-3.5-4.9
			c-0.1-2.5,1-4.5,3.1-5.6c1.2-0.7,2.8-1,4.2-1.1c2.4-0.1,4.6-0.6,6.7-1.6c0.2-0.1,0.4-0.2,0.6-0.3c2.1-1.1,4.3-1.4,6.3,0.2
			c1.9,1.5,2.2,3.7,1.6,5.9c-0.7,2.7-0.7,5.3-0.1,8c0.7,2.8,0,5.4-2.4,7.2C91.5,46.5,88.9,46.4,86.6,44.6z"/>
		<path d="M108.7,24.2c-1.3,1.5-2.7,2.8-4.8,3c-3.1,0.4-5.5-2-5-5.1c0.5-3.4,5.2-7.3,8.7-7.1c2.1,0.1,3.7,1.6,3.3,3.7
			c-0.3,1.9-1.2,3.7-1.8,5.5C108.9,24.2,108.8,24.2,108.7,24.2z"/>
		<path d="M90.8,9.8C92,8.9,93.4,7.6,95,6.9c2.7-1.3,5.1,0.3,5.1,3.2c0.1,3.1-1,5.8-3.4,8c-1.8,1.7-4,1.9-5.7,0.8
			c-1.8-1.2-2.6-3.4-1.8-5.7C89.6,12.1,90.2,11.1,90.8,9.8z"/>
		<path d="M109.7,36.4c-1.4,1.6-2.9,2.9-4.9,3.4c-2.2,0.6-4.4-0.2-5.3-2c-0.9-1.7-0.4-3.9,1.2-5.4c1.7-1.6,3.6-2.5,5.9-2.8
			c1.6-0.2,3.1,0,4.1,1.4c1,1.4,0.5,2.9-0.3,4.3C110.1,35.7,109.9,36,109.7,36.4z"/>
		<path d="M84.5,20.2c-1.5,1.9-3.3,2.6-4.9,2.1c-1.6-0.5-2.8-2-3-3.9c-0.3-2.9,1.8-6.9,4.3-8.2c1.9-1,3.8-0.4,4.6,1.7
			C86.7,15,85.8,17.9,84.5,20.2z"/>
	</g>
</g>
</svg>
