<?xml version="1.0" encoding="utf-8"?>
<!-- Generator: Adobe Illustrator 25.3.0, SVG Export Plug-In . SVG Version: 6.00 Build 0)  -->
<svg version="1.1" xmlns="http://www.w3.org/2000/svg" xmlns:xlink="http://www.w3.org/1999/xlink" x="0px" y="0px"
	 viewBox="0 0 294.7 278.7" xml:space="preserve">
<g>
	<path d="M284.3,184.1c-5.2,4.2-10,9-15.6,12.4c-18.3,10.9-31.3,26-37,46.7c-7.7,27.9-23.5,35-41.2,35.5
		c-18.4,0.5-33.4-7.3-41.9-23.5c-4.8-9.3-7.6-20.6-7.8-31.1c-0.4-17.7,1-32.8-14.4-54.5c-10.2-14.4-9.9-32.2,1.8-46.8
		c11.4-14.2,27.6-16.3,44.3-11.8c19.9,5.3,39.3,5.5,59.4,0.9c21-4.8,40,0,53.6,18.3C298.3,147.3,297.6,167.1,284.3,184.1z"/>
	<path d="M132.5,18.3C148.1,29,153,38.7,155,54.1c3,23.1-15.1,40.8-38,37.2c-25.7-4-54.2-39.2-52.8-65.1C65.1,10.5,76.4-1,92.2,1.7
		C106.3,4.2,120,9.7,132.5,18.3z"/>
	<path d="M3,120c-8.8-20,2.4-37.7,24.2-38.2c23.3-0.6,43.5,8,59.2,25.4c12.4,13.7,14.1,30.2,6,42.7c-8.9,13.6-25.2,19.1-43,13.3
		C41.5,160.5,15.4,148,3,120z"/>
	<path d="M249,48.5c4.2,16.6-1.9,32.5-14.9,39.2c-12.6,6.6-28.9,3-40.2-9.1c-11.5-12.5-18.4-27.3-20.5-44.2
		c-1.4-11.7,0.2-23,10.6-30.2c10.7-7.4,22.1-4.3,31.8,2.2C232.1,17.3,245.1,33.2,249,48.5z"/>
	<path d="M102,198.7c14.1,11.3,19,24.6,15.5,36.7c-3.5,12.1-14.8,20.6-29.3,22.2C66.8,259.9,37,244.1,27,225
		c-7.5-14.2-2.7-28.6,12.7-34.3C63,182.1,84.5,188.4,102,198.7z"/>
</g>
</svg>
