<?xml version="1.0" encoding="utf-8"?>
<!-- Generator: Adobe Illustrator 25.3.0, SVG Export Plug-In . SVG Version: 6.00 Build 0)  -->
<svg version="1.1" xmlns="http://www.w3.org/2000/svg" xmlns:xlink="http://www.w3.org/1999/xlink" x="0px" y="0px"
	 viewBox="0 0 211.3 115" xml:space="preserve">
<g>
	<g>
		<path d="M103.9,0c2.4,0,4.7,0,7.1,0c0,2.6,0,5.2,0,8c0.8,0,1.4,0,2,0c11.3,0,22.7-0.1,34,0c6.9,0.1,13.9-0.2,20.6,0.9
			c15.7,2.5,27.6,11.4,35.9,24.8c5.9,9.4,8.1,19.7,7.6,30.8c-0.7,14.9-5.8,27.8-16.8,38.1c-8.5,8-18.4,12.7-30.5,12.3
			c-10-0.3-19.9-1.8-29.6-4c-5.4-1.2-10.7-2.6-16.2-3.1c-13.6-1.2-27-0.6-40.3,3.1c-10.7,2.9-21.6,4.4-32.7,4
			c-8.7-0.3-16.5-3-23.3-8.3C10.6,97.8,3.8,86.1,1,72.1c-4.5-22.9,5.9-45.5,26-57.1c7.5-4.3,15.5-6.9,24.2-6.8
			c8.1,0.1,16.3-0.1,24.4-0.2C84.6,8.1,93.5,8,102.4,8c1.2,0,1.7-0.3,1.6-1.5C103.9,4.3,103.9,2.2,103.9,0z M42.9,76.2
			c0,0.9,0,1.5,0,2.1c0.1,2.7,0,5.4,0.2,8c0.2,2.9,0.9,3.7,3.8,3.7c7,0.1,14,0.2,21,0.2c2.2,0,3.5-1.3,3.7-3.5
			c0.1-2.9,0.3-5.9,0.3-8.8c0-1.5,0.5-1.8,1.9-1.8c2.9,0,5.9-0.1,8.8-0.2c2.1-0.1,3.4-1.5,3.4-3.6c0-7.2,0-14.4,0-21.6
			c0-0.7-0.5-1.8-1.1-2.1c-1-0.6-2.3-1.2-3.5-1.2c-3.1-0.2-6.1-0.1-9.3-0.1c0-0.8-0.1-1.4-0.1-1.9c-0.1-2.8-0.2-5.7-0.3-8.5
			c-0.1-2.6-1.3-3.7-3.9-3.6c-6.9,0.1-13.9,0.1-20.8,0.2c-2.8,0-3.5,0.5-3.7,3.4c-0.2,2.9-0.2,5.8-0.3,8.6c0,0.6-0.1,1.2-0.1,1.9
			c-1.1,0-2.1,0-3.1,0c-2.4,0.1-4.7,0-7.1,0.2c-2.9,0.3-3.8,1.1-3.9,4c-0.1,7,0,14,0.1,21c0,2.3,1,3.2,3.3,3.5
			c1.5,0.2,3.1,0.2,4.6,0.3C38.7,76.2,40.7,76.2,42.9,76.2z M146.8,62c0-8-6.5-14.8-14.3-14.6c-9.5,0.2-14.2,7.7-14.2,14.3
			c0,7.8,6.5,14.3,14.3,14.3C140.2,75.9,146.8,69.5,146.8,62z M143.5,36.6c-0.6,6.5,5.8,14.3,14,14.2c7.9-0.1,14.3-6.3,14.4-14.1
			c0.1-7.2-5.5-14.3-14.9-14.3C151.2,22.4,142.8,28.6,143.5,36.6z M157.6,72.5c-7.9,0-14.2,6.5-14.2,14.4c0,7.6,6.4,13.9,14,14
			c9.1,0.1,14.6-7.5,14.5-14.1C171.8,78.9,165.6,72.5,157.6,72.5z M196.7,61.6c0.8-8.2-7.5-14.3-13.9-14.2
			c-7.7,0.1-14.3,6.6-14.3,14.3c0,7.9,6.5,14.2,14.4,14.4C188.9,76.1,197.4,70.5,196.7,61.6z M109.1,29.3c0,0.1,0,0.1,0,0.2
			c2.4,0,4.8-0.1,7.3,0c1.6,0.1,2.6-0.6,3.5-1.8c0.8-1.1,0.7-2.2,0.2-3.3c-0.5-1.1-1.3-1.8-2.6-1.8c-4.4,0-8.8-0.1-13.3-0.1
			c-1.4,0-2.9,0-4.3,0.1c-1.3,0.1-2.3,0.6-2.8,1.9c-0.5,1.3-0.4,2.6,0.5,3.5c0.8,0.7,2,1.2,3.1,1.3
			C103.5,29.4,106.3,29.3,109.1,29.3z"/>
		<path d="M50,40.3c4.8,0,9.4,0,14.3,0c0,0.5,0.1,1.1,0.1,1.6c0,2.4,0,4.8,0.1,7.3c0.1,4.1,1.2,5.3,5.4,5.5c2.4,0.1,4.7,0.1,7.1,0.1
			c0.6,0,1.1,0,1.8,0c0,4.7,0,9.2,0,14.1c-1.3,0-2.6,0-3.9,0c-2.3,0-4.6,0-6.9,0.2c-2.3,0.2-3,0.9-3.2,3.2c-0.2,3.2-0.3,6.4-0.3,9.6
			c0,1.1-0.3,1.4-1.4,1.4c-3.8-0.1-7.6-0.2-11.4-0.1c-1.2,0-1.4-0.5-1.5-1.5c0-3.1-0.1-6.2-0.3-9.3c-0.1-2.3-0.6-3-2.9-3.2
			c-3.1-0.3-6.2-0.2-9.3-0.3c-0.5,0-1,0-1.6-0.1c-0.1-0.4-0.2-0.7-0.2-0.9c0-3.9,0-7.8,0-11.7c0-1,0.3-1.3,1.3-1.3
			c2.7,0,5.5-0.1,8.2-0.2c3.7-0.2,4.4-1,4.5-4.7c0-2.6,0-5.3,0-7.9C49.9,41.4,49.9,40.9,50,40.3z"/>
		<path d="M125.7,61.7c0-4.4,2.6-7.1,6.8-7c4,0,7.2,3.2,7.1,7.1c-0.1,3.9-3.1,6.9-7.1,6.9C128.4,68.7,125.7,65.9,125.7,61.7z"/>
		<path d="M157.7,43.6c-4.1,0-7.1-3-7-7.2c0-3.8,3.1-6.9,6.8-6.9c3.8,0,7.3,3.2,7.3,6.8C164.7,40.6,161.8,43.6,157.7,43.6z"/>
		<path d="M164.7,86.7c0,3.8-3.3,7.2-7,7.2c-3.8,0-7.1-3.2-7.1-6.9c0-4.1,3.2-7.5,7.1-7.4C161.5,79.6,164.8,83,164.7,86.7z"/>
		<path d="M189.8,61.8c0,3.8-3.1,7-6.8,7c-4.1,0-7.4-3.3-7.4-7.3c0-3.8,3.2-6.8,7.1-6.8C186.8,54.7,189.8,57.7,189.8,61.8z"/>
	</g>
</g>
</svg>
