<?xml version="1.0" encoding="utf-8"?>
<!-- Generator: Adobe Illustrator 25.3.0, SVG Export Plug-In . SVG Version: 6.00 Build 0)  -->
<svg version="1.1" xmlns="http://www.w3.org/2000/svg" xmlns:xlink="http://www.w3.org/1999/xlink" x="0px" y="0px"
	 viewBox="0 0 113.7 144.6" xml:space="preserve">
<path d="M0,136.5c0.1-1.8,0.1-3.6,0.3-5.4c0.2-2.8,0.5-5.5,0.7-8.3c0.3-4.1,0.6-8.3,0.9-12.4c0.4-5.7,0.9-11.5,1.4-17.2
	c0.2-2.3,0.3-4.6,0.5-7C4.1,81.1,4.5,76,4.8,70.9c0.3-3.9,0.6-7.7,0.8-11.6c0.3-4.5,0.7-9,1.1-13.5c0.2-2.7,0.3-5.4,0.5-8.1
	c0.1-1.9,0.3-3.7,0.5-5.8c5.4,0,10.6,0,16,0c0-0.8,0.1-1.5,0.1-2.1c0.1-5.6,1.1-11.1,3.2-16.3c1.3-3.2,3-6.2,5.5-8.6
	C37.2,0.2,42.8-1,49,0.8c4.1,1.2,6.7,4.1,8.3,7.9c1.3,3.1,1.9,6.3,2.3,9.6c0.3,3,0.3,5.9,0.4,8.9c0,0.7-0.1,1.4-0.1,2.1
	c0,0.8,0.1,1.6,0.1,2.6c4.9,0,9.6,0,14.4,0c0.1-0.5,0.2-0.9,0.2-1.3c0.2-4.8,0.1-9.6-1.2-14.2c-0.7-2.5-1.7-4.9-3.2-7
	c-2.7-3.6-6.3-4.8-10.6-4c-0.4,0.1-0.8,0.1-1.2,0.2c-0.9-1.1-1.8-2.2-2.7-3.4c0.5-0.8,1.4-0.9,2.2-1c6.5-1.5,12.8,1,16.4,6.5
	c2.3,3.5,3.6,7.3,4.2,11.4c0.5,3.1,0.5,6.3,0.7,9.5c0.1,1.1-0.1,2.3-0.2,3.6c5,0.1,9.8,0.2,14.7,1c0.1,2.2,0.3,4.3,0.3,6.3
	C93.9,45.2,94,51.1,94,57c0,2.1,0.1,4.1,0,6.2c-0.2,3.7,0.2,7.5,0.3,11.2c0.2,9.9,0.3,19.8,0.5,29.7c0.1,6.7,0.2,13.3,0.4,20
	c0,1.2-0.2,2.3-0.9,3.3c-1.5,2.1-3,4.2-4.4,6.4c-0.7,1.1-1.3,2.2-2.2,3.6c0.2,0.2,0.5,0.4,0.9,0.7c2.9-3.6,5.2-7.3,8.2-10.5
	c3.9,2,7.6,3.9,11.6,5.9c-0.1-0.7-0.1-1.1-0.3-1.3c-0.4-0.4-0.9-0.7-1.4-1c-3-1.9-6-3.8-9.2-5.7c0-0.5-0.1-1.1-0.1-1.7
	c-0.2-10.4-0.3-20.7-0.5-31.1c-0.1-7.1-0.2-14.2-0.4-21.4c0-2.1-0.3-4.3-0.2-6.4c0.2-5.1-0.2-10.2-0.2-15.2c0-5.4-0.2-10.9-0.3-16.3
	c0-0.2,0.1-0.4,0.1-0.7c3.2-1,6.3-2.2,9.8-2.8c0.1,0.6,0.2,1,0.2,1.5c0.4,5.7,0.8,11.4,1.2,17c0.4,5.5,0.8,11.1,1.2,16.6
	c0.5,6.9,1,13.8,1.5,20.7c0.3,3.5,0.5,7.1,0.8,10.6c0.3,4.3,0.7,8.6,1,13c0.2,2.3,0.3,4.5,0.5,6.8c0.4,5.9,0.8,11.8,1.2,17.6
	c0.1,1.1,0.2,2.2,0.3,3.4c-0.9,0.2-1.7,0.5-2.5,0.7c-5.4,1.4-10.8,3-16.3,4.3c-3.1,0.7-6.1,1.6-9.2,2.3c-0.6,0.1-1.2,0.3-1.7,0.2
	c-2.7-0.5-5.4-0.6-8.1-0.7c-2.2-0.1-4.4-0.4-6.6-0.6c-1.7-0.2-3.3-0.3-5-0.5c-4.3-0.4-8.5-0.7-12.8-1.2c-5.2-0.5-10.4-1-15.6-1.5
	c-3.7-0.3-7.4-0.5-11-1c-2.6-0.3-5.1-0.5-7.7-0.8c-2.1-0.2-4.1-0.4-6.2-0.6c-3.5-0.3-7-0.6-10.4-0.9C0.5,136.8,0.3,136.6,0,136.5z
	 M59.8,39.6c1,0.1,1.9,0.1,2.7,0.3c3.5,1,5,6.1,2,9.5c-1.5,1.7-4.8,1.9-6.4,0c-1.3-1.5-2.2-3.3-3.2-5c-0.2-0.3-0.2-0.6-0.3-0.9
	c-0.1-1.5-0.3-3.1-0.4-4.6c-0.1-0.8,0-1.6-0.1-2.4c-2.9-0.3-23-0.3-24.5,0.1c0.3,1.4,0.3,3,1.9,3.7c0.5-0.2,0.9-0.3,1.3-0.5
	c1.7-0.7,3.2-0.1,4.4,1.1c2.2,2.2,2.2,6.1,0.1,8.3c-0.6,0.7-1.4,1.1-2.3,1.2c-3,0.3-4.6-1-5.3-3.5c-0.3-1.2-1-1.9-1.9-2.6
	c-1.7-1.3-2.9-2.9-3.3-5.1c-0.2-0.9-0.4-1.9-0.6-2.9c-4.1,0-8.1,0-12.2,0c-0.1,0.3-0.2,0.6-0.2,0.8c-0.3,4.3-0.6,8.5-0.9,12.8
	c-0.2,2.5-0.3,5-0.5,7.6c-0.4,4.9-0.8,9.8-1.1,14.7c-0.3,3.6-0.5,7.2-0.8,10.8C7.9,89,7.3,95,6.9,101.1c-0.3,3.6-0.5,7.2-0.8,10.8
	c-0.5,6.4-1,12.8-1.5,19.2c0,0.6,0.1,1.1,0.1,1.7c2.2,0.2,4.3,0.4,6.3,0.6c2.2,0.2,4.4,0.4,6.6,0.6c2.9,0.3,5.9,0.6,8.8,0.9
	c3.3,0.3,6.6,0.6,9.9,0.9c3.9,0.4,7.7,0.8,11.6,1.1c3.6,0.3,7.2,0.6,10.8,0.9c4.9,0.5,9.8,1,14.7,1.4c1.4,0.1,2.8,0,4,0.5
	c1.8,0.6,3.6,0.1,5.5,0.5c0.1-17.3,0.3-34.5,0.4-51.7c0.2-17.3,0.5-34.5,0.5-51.9c-8.1-0.1-16.1-0.5-24-0.3
	C59.8,37.5,59.8,38.5,59.8,39.6z M29.4,31.7C32.1,32,42.5,32,44,31.5c0.4-7.5,0.8-15.1,4-22.2c2.4,1.8,3.1,3.7,2.4,6.3
	c-1.1,4-1.6,8.1-1.9,12.3c-0.1,1.3,0,2.6,0,3.8c1.8,0.4,4.4,0.4,5.8-0.1c0-5.1,0.3-10.3-0.6-15.5c-0.4-2.1-1-4.2-2.1-6
	c-1.1-1.8-2.5-3.4-4.6-4c-3.8-1.2-7.3-0.6-10.3,2.1c-2,1.8-3.3,4-4.4,6.3c-1.4,3-2.2,6.2-2.6,9.5C29.5,26.5,29.1,29,29.4,31.7z"/>
</svg>
