<?xml version="1.0" encoding="utf-8"?>
<!-- Generator: Adobe Illustrator 25.3.0, SVG Export Plug-In . SVG Version: 6.00 Build 0)  -->
<svg version="1.1" xmlns="http://www.w3.org/2000/svg" xmlns:xlink="http://www.w3.org/1999/xlink" x="0px" y="0px"
	 viewBox="0 0 500 500" xml:space="preserve">
<g>
	<g>
		<g>
			<path d="M382.4,89.3c-16.2,0-29.3,13.1-29.3,29.3c0,16.2,13.1,29.3,29.3,29.3c16.2,0,29.3-13.1,29.3-29.3
				C411.7,102.4,398.6,89.3,382.4,89.3z"/>
			<path d="M252.1,126.9c-67.9,0-123.1,55.2-123.1,123.1c0,67.9,55.2,123.1,123.1,123.1c67.9,0,123.1-55.2,123.1-123.1
				C375.2,182.1,319.9,126.9,252.1,126.9z M252.1,328.9c-43.5,0-78.9-35.4-78.9-78.9s35.4-78.9,78.9-78.9
				c43.5,0,78.9,35.4,78.9,78.9S295.5,328.9,252.1,328.9z"/>
			<path d="M349.8,500H150.2C67.4,500,0,432.6,0,349.8V150.2C0,67.4,67.4,0,150.2,0h199.6C432.6,0,500,67.4,500,150.2v199.6
				C500,432.6,432.6,500,349.8,500z M150.2,47C93.3,47,47,93.3,47,150.2v199.6C47,406.7,93.3,453,150.2,453h199.6
				c56.9,0,103.2-46.3,103.2-103.1V150.2C453,93.3,406.7,47,349.8,47H150.2z"/>
		</g>
	</g>
</g>
</svg>
